<?xml version="1.0" encoding="utf-8"?>
<!-- Generator: Adobe Illustrator 21.0.0, SVG Export Plug-In . SVG Version: 6.00 Build 0)  -->
<svg version="1.1" id="Layer_1" xmlns="http://www.w3.org/2000/svg" xmlns:xlink="http://www.w3.org/1999/xlink" x="0px" y="0px"
	 viewBox="0 0 479.6 109.6" style="enable-background:new 0 0 479.6 109.6;" xml:space="preserve">
<style type="text/css">
	.st0{fill:#FFFFFF;}
	.st1{fill:#7AD2C4;}
	.st2{fill:#A3E1D5;}
	.st3{fill:#D8F2EC;}
	.st4{fill:#DE8F38;}
	.st5{fill:#BDEAE1;}
</style>
<g>
	<g>
		<path class="st0" d="M120.6,28.8c3.4,0,6.2,1.1,8.4,3.4c2.3,2.2,3.4,5,3.4,8.3c0,3.2-1.1,6-3.4,8.3c-2.3,2.3-5,3.4-8.3,3.4
			c-3.3,0-6.1-1.1-8.3-3.4c-2.3-2.3-3.4-5-3.4-8.2c0-2.1,0.5-4.1,1.5-5.9c1-1.8,2.4-3.2,4.2-4.3C116.6,29.3,118.5,28.8,120.6,28.8z
			 M120.7,31c-1.6,0-3.2,0.4-4.7,1.3c-1.5,0.9-2.6,2-3.4,3.5c-0.8,1.4-1.2,3.1-1.2,4.8c0,2.6,0.9,4.9,2.7,6.7c1.8,1.8,4,2.7,6.6,2.7
			c1.7,0,3.3-0.4,4.8-1.3c1.5-0.8,2.6-2,3.4-3.4c0.8-1.4,1.2-3.1,1.2-4.8c0-1.8-0.4-3.4-1.2-4.8c-0.8-1.4-2-2.6-3.5-3.4
			C124,31.4,122.4,31,120.7,31z"/>
		<path class="st0" d="M142.6,29.4h4.4c2.5,0,4.1,0.1,5,0.3c1.3,0.3,2.4,0.9,3.2,1.9c0.8,1,1.2,2.2,1.2,3.7c0,1.2-0.3,2.3-0.9,3.2
			c-0.6,0.9-1.4,1.6-2.4,2.1c-1.1,0.5-2.5,0.7-4.4,0.7l8,10.3H154l-8-10.3h-1.3v10.3h-2.2V29.4z M144.8,31.6v7.5l3.8,0
			c1.5,0,2.6-0.1,3.3-0.4c0.7-0.3,1.3-0.7,1.7-1.4c0.4-0.6,0.6-1.3,0.6-2.1c0-0.7-0.2-1.4-0.6-2c-0.4-0.6-0.9-1-1.6-1.3
			c-0.7-0.3-1.7-0.4-3.3-0.4H144.8z"/>
		<path class="st0" d="M175.8,29.4l10.3,22.2h-2.4l-3.5-7.3h-9.6l-3.5,7.3h-2.5l10.5-22.2H175.8z M175.5,34.1l-3.8,8h7.6L175.5,34.1
			z"/>
		<path class="st0" d="M195.2,51.6V29.4h0.5l14.8,17v-17h2.2v22.2h-0.5l-14.6-16.8v16.8H195.2z"/>
		<path class="st0" d="M245,33.1l-1.7,1.6c-1.2-1.2-2.6-2.1-4.1-2.8c-1.5-0.6-2.9-0.9-4.3-0.9c-1.7,0-3.4,0.4-5,1.3
			c-1.6,0.9-2.8,2-3.7,3.5c-0.9,1.5-1.3,3-1.3,4.6c0,1.7,0.4,3.3,1.3,4.8c0.9,1.5,2.1,2.7,3.7,3.5c1.6,0.9,3.3,1.3,5.2,1.3
			c2.3,0,4.2-0.6,5.8-1.9c1.6-1.3,2.5-3,2.8-5h-7.1v-2.1h9.6c0,3.4-1,6.2-3.1,8.2c-2,2-4.7,3-8.1,3c-4.1,0-7.3-1.4-9.7-4.2
			c-1.8-2.2-2.8-4.6-2.8-7.5c0-2.1,0.5-4.1,1.6-5.9c1.1-1.8,2.5-3.2,4.3-4.2c1.8-1,3.9-1.5,6.2-1.5c1.9,0,3.7,0.3,5.3,1
			C241.8,30.5,243.4,31.6,245,33.1z"/>
		<path class="st0" d="M256.1,29.4h12.7v2.2h-10.5v7h10.4v2.2h-10.4v8.7h10.4v2.2h-12.6V29.4z"/>
	</g>
	<g>
		<path class="st0" d="M132.3,64.7l-1.7,1.3c-1-1.3-2.1-2.2-3.5-2.9c-1.4-0.6-2.8-1-4.5-1c-1.8,0-3.4,0.4-4.9,1.3
			c-1.5,0.8-2.7,2-3.5,3.4c-0.8,1.4-1.2,3-1.2,4.8c0,2.7,0.9,5,2.8,6.8c1.9,1.8,4.2,2.7,7,2.7c3.1,0,5.7-1.2,7.8-3.7l1.7,1.3
			c-1.1,1.4-2.5,2.5-4.1,3.3c-1.7,0.8-3.5,1.2-5.5,1.2c-3.9,0-6.9-1.3-9.2-3.9c-1.9-2.2-2.8-4.8-2.8-7.9c0-3.2,1.1-6,3.4-8.2
			c2.3-2.2,5.1-3.3,8.6-3.3c2.1,0,3.9,0.4,5.6,1.2C129.9,62.1,131.2,63.2,132.3,64.7z"/>
		<path class="st0" d="M157.2,60c3.4,0,6.2,1.1,8.4,3.4c2.3,2.2,3.4,5,3.4,8.3c0,3.2-1.1,6-3.4,8.3c-2.3,2.3-5,3.4-8.3,3.4
			c-3.3,0-6.1-1.1-8.3-3.4c-2.3-2.3-3.4-5-3.4-8.2c0-2.1,0.5-4.1,1.5-5.9c1-1.8,2.4-3.2,4.2-4.3C153.2,60.5,155.1,60,157.2,60z
			 M157.3,62.2c-1.6,0-3.2,0.4-4.7,1.3c-1.5,0.9-2.6,2-3.4,3.5c-0.8,1.4-1.2,3.1-1.2,4.8c0,2.6,0.9,4.9,2.7,6.7
			c1.8,1.8,4,2.7,6.6,2.7c1.7,0,3.3-0.4,4.8-1.3s2.6-2,3.4-3.4c0.8-1.4,1.2-3.1,1.2-4.8c0-1.8-0.4-3.4-1.2-4.8
			c-0.8-1.4-2-2.6-3.5-3.4C160.6,62.6,159,62.2,157.3,62.2z"/>
		<path class="st0" d="M183.4,60.6h2.2v20h8.5v2.1h-10.8V60.6z"/>
		<path class="st0" d="M218.1,60c3.4,0,6.2,1.1,8.4,3.4c2.3,2.2,3.4,5,3.4,8.3c0,3.2-1.1,6-3.4,8.3c-2.3,2.3-5,3.4-8.3,3.4
			c-3.3,0-6.1-1.1-8.3-3.4c-2.3-2.3-3.4-5-3.4-8.2c0-2.1,0.5-4.1,1.5-5.9c1-1.8,2.4-3.2,4.2-4.3C214.1,60.5,216,60,218.1,60z
			 M218.2,62.2c-1.6,0-3.2,0.4-4.7,1.3c-1.5,0.9-2.6,2-3.4,3.5c-0.8,1.4-1.2,3.1-1.2,4.8c0,2.6,0.9,4.9,2.7,6.7
			c1.8,1.8,4,2.7,6.6,2.7c1.7,0,3.3-0.4,4.8-1.3c1.5-0.8,2.6-2,3.4-3.4c0.8-1.4,1.2-3.1,1.2-4.8c0-1.8-0.4-3.4-1.2-4.8
			c-0.8-1.4-2-2.6-3.5-3.4S219.9,62.2,218.2,62.2z"/>
		<path class="st0" d="M243.2,82.8l3.2-22.2h0.4l9,18.2l8.9-18.2h0.4l3.2,22.2h-2.2l-2.2-15.9l-7.8,15.9h-0.6l-7.9-16l-2.2,16H243.2
			z"/>
	</g>
</g>
<g>
	<g>
		<path class="st0" d="M365.5,67.7c0.1,0.3,0.1,0.5,0.1,0.8c0.4-0.5,0.8-1,1.2-1.4c0.4-0.5,0.9-0.9,1.3-1.3c0.4-0.4,0.9-0.8,1.4-1.2
			s1-0.8,1.5-1.1c0.5-0.3,1-0.6,1.5-0.8c0.5-0.3,1.1-0.4,1.6-0.4c0.3,0,0.5,0,0.7,0.1c0.2,0.1,0.4,0.3,0.4,0.6c0,0.3,0,0.5-0.1,0.7
			c-0.1,0.2-0.2,0.5-0.3,0.7c-0.3,0.5-0.7,1-1.1,1.5s-0.8,0.9-1.1,1.4c-0.1,0.2-0.3,0.4-0.4,0.6c-0.1,0.2-0.3,0.4-0.4,0.6
			c0.5-0.5,1-1,1.6-1.5c0.5-0.5,1.1-0.9,1.6-1.4c0.5-0.4,0.9-0.7,1.5-1.1c0.5-0.4,1-0.6,1.6-0.8c0.1,0,0.2,0,0.3-0.1s0.2,0,0.3,0
			s0.2,0,0.3,0.1s0.1,0.1,0.1,0.3c0,0.2-0.1,0.3-0.3,0.5s-0.3,0.3-0.4,0.4c-0.4,0.4-0.7,0.7-1.1,1.1c-0.4,0.4-0.7,0.8-1.1,1.2
			c-0.3,0.4-0.7,0.8-0.9,1.3c-0.3,0.4-0.5,0.9-0.6,1.4c0,0.1-0.1,0.2-0.1,0.4s0,0.2,0,0.3c0,0.1,0.1,0.2,0.1,0.3
			c0.1,0.1,0.2,0.1,0.3,0.1c0.3,0,0.6,0,0.9-0.1c0.3-0.1,0.6-0.2,0.9-0.2c0.3-0.1,0.6-0.2,0.9-0.3c0.3-0.1,0.6-0.2,0.8-0.4l0.8-0.4
			c0.1,0,0.1,0,0.2-0.1c0,0,0.1,0,0.2,0c0.1,0,0.1,0.1,0.1,0.2c0,0.1,0,0.1-0.1,0.2c-0.3,0.1-0.5,0.2-0.8,0.4s-0.5,0.2-0.8,0.3
			c-0.3,0.1-0.6,0.2-0.9,0.4s-0.6,0.2-0.9,0.3c-0.2,0.1-0.3,0.1-0.5,0.2c-0.2,0-0.4,0.1-0.6,0.1c-0.2,0-0.4,0-0.6,0
			c-0.2,0-0.3-0.1-0.5-0.2c-0.1-0.1-0.2-0.2-0.3-0.4c0-0.2-0.1-0.3-0.1-0.5c0-0.2,0-0.3,0.1-0.5c0.1-0.2,0.1-0.3,0.2-0.4
			c0.2-0.4,0.3-0.7,0.6-1.1c0.2-0.3,0.5-0.7,0.7-1c0-0.1,0.2-0.2,0.4-0.5c0.2-0.2,0.5-0.5,0.7-0.8c0.3-0.3,0.6-0.6,0.8-1
			c0.3-0.3,0.5-0.6,0.7-0.8c-0.2,0-0.3,0.1-0.5,0.2c-0.2,0.1-0.3,0.1-0.5,0.2c-0.3,0.2-0.6,0.3-0.8,0.5s-0.5,0.3-0.8,0.5
			c-0.5,0.4-1,0.8-1.5,1.2c-0.5,0.4-0.9,0.8-1.4,1.3c-0.9,0.9-1.8,1.9-2.6,2.9c-0.1,0.1-0.1,0.1-0.2,0.2c-0.1,0.1-0.1,0.2-0.2,0.2
			c-0.1,0.1-0.2,0.1-0.3,0c-0.1-0.1-0.1-0.1-0.2-0.2c0-0.1,0-0.2,0.2-0.4c0.1-0.1,0.2-0.2,0.3-0.3l0.7-0.9c0.4-0.5,0.8-1.1,1.2-1.6
			s0.8-1.1,1.2-1.6c0.2-0.3,0.5-0.6,0.7-0.9s0.5-0.6,0.6-1c0-0.1,0.1-0.2,0.2-0.3c0.1-0.1,0.2-0.3,0.2-0.4c0.1-0.1,0.1-0.3,0.1-0.4
			s0-0.2-0.1-0.3c-0.1-0.1-0.2-0.1-0.4-0.1s-0.3,0-0.5,0.1c-0.2,0-0.3,0.1-0.5,0.1c-0.2,0.1-0.3,0.1-0.4,0.1
			c-0.6,0.2-1.2,0.5-1.7,0.8c-0.5,0.3-1.1,0.7-1.6,1.1c-1.2,1-2.3,2.1-3.2,3.2c-0.2,0.2-0.3,0.4-0.4,0.6c-0.1,0.2-0.3,0.4-0.4,0.6
			c-0.1,0.4-0.3,0.9-0.6,1.3c-0.2,0.4-0.5,0.8-0.8,1.1c-0.1,0.1-0.2,0.2-0.3,0.2c-0.1,0-0.2,0-0.3,0s-0.1-0.1-0.1-0.1
			c0-0.1,0-0.2,0.1-0.3c0.2-0.4,0.4-0.7,0.6-1.1c0.2-0.3,0.5-0.7,0.7-1c0.1-0.4,0.2-0.7,0.2-1.1c0-0.1,0-0.1,0-0.2
			c0-0.1,0-0.2-0.1-0.2c0-0.1,0-0.2,0-0.2s0-0.1,0.1-0.2c0.1-0.1,0.2-0.1,0.3,0C365.4,67.5,365.4,67.6,365.5,67.7z"/>
		<path class="st0" d="M379.5,69.3c0.1-0.1,0.3-0.2,0.5-0.3c0.2-0.1,0.4-0.2,0.6-0.3c0.2-0.1,0.5-0.2,0.7-0.3s0.4-0.2,0.5-0.2
			c0.1,0,0.2-0.1,0.4-0.1c0.2-0.1,0.4-0.1,0.6-0.2c0.2-0.1,0.4-0.1,0.6-0.1c0.2,0,0.3,0,0.4,0c0.1,0.1,0.2,0.2,0.1,0.3
			s-0.2,0.2-0.3,0.2l-0.7,0.1c-0.2,0-0.3,0.1-0.4,0.2c-0.1,0.1-0.2,0.1-0.4,0.2c-0.1,0-0.2,0.1-0.3,0.3s-0.3,0.3-0.4,0.4
			c-0.1,0.2-0.2,0.3-0.3,0.5c-0.1,0.1-0.1,0.3,0,0.3c0.1,0.1,0.2,0.1,0.3,0c0.1,0,0.3-0.1,0.5-0.1s0.3-0.1,0.4-0.2
			c0.1-0.1,0.2-0.1,0.3-0.2c0.3-0.2,0.6-0.4,0.8-0.6c0.1-0.1,0.2-0.1,0.3,0s0.2,0.2,0.1,0.3c0,0.1-0.1,0.1-0.1,0.2s-0.1,0.1-0.2,0.2
			c0,0-0.1,0.1-0.1,0.2c0,0.1-0.1,0.1,0,0.2c0,0,0.1,0.1,0.1,0.1c0.2,0,0.3,0,0.6,0s0.5-0.1,0.7-0.2c0.2-0.1,0.5-0.2,0.7-0.3
			c0.2-0.1,0.4-0.2,0.6-0.3c0,0,0.1,0,0.2-0.1c0.1,0,0.2-0.1,0.2-0.1s0.2,0,0.2,0c0.1,0,0.1,0,0.2,0.1c0,0.1,0,0.1,0,0.2
			c0,0.1-0.1,0.1-0.2,0.1c-0.1,0-0.2,0.1-0.3,0.1c-0.1,0-0.2,0.1-0.2,0.1c-0.2,0.1-0.4,0.2-0.6,0.3s-0.4,0.2-0.6,0.3
			c-0.1,0.1-0.3,0.1-0.4,0.2c-0.2,0.1-0.3,0.1-0.5,0.2c-0.2,0.1-0.3,0.1-0.5,0.1c-0.2,0-0.3,0-0.5,0c-0.2-0.1-0.3-0.2-0.3-0.3
			c0-0.1,0-0.3,0-0.4l-0.4,0.3c-0.2,0.1-0.4,0.2-0.6,0.3c-0.2,0.1-0.4,0.2-0.6,0.2c-0.2,0-0.4,0-0.5-0.1s-0.2-0.3-0.2-0.5
			c0-0.1,0-0.2,0.1-0.4c0.1-0.2,0.2-0.3,0.3-0.5c0.1-0.2,0.3-0.3,0.5-0.5c0.2-0.2,0.3-0.3,0.5-0.3c-0.1,0-0.2,0.1-0.4,0.1
			c-0.2,0.1-0.4,0.2-0.6,0.3s-0.4,0.2-0.7,0.3c-0.2,0.1-0.5,0.2-0.6,0.3c-0.1,0-0.1,0-0.2,0s-0.1,0-0.1-0.1c0,0,0-0.1,0-0.1
			C379.4,69.4,379.4,69.3,379.5,69.3z"/>
		<path class="st0" d="M386.8,69.3c0.3-0.2,0.7-0.3,1-0.5c0.3-0.2,0.6-0.4,1-0.6c0.2-0.3,0.3-0.6,0.5-0.9s0.4-0.6,0.5-0.8
			c0.2-0.3,0.4-0.5,0.6-0.8c0.2-0.3,0.4-0.5,0.6-0.8c0.2-0.2,0.3-0.4,0.5-0.7s0.4-0.4,0.7-0.6c0.1-0.1,0.3-0.1,0.4-0.1
			c0.2,0,0.3,0.1,0.4,0.2c0,0.1,0,0.2,0,0.4s-0.1,0.2-0.2,0.3c-0.1,0.1-0.2,0.2-0.2,0.3c-0.1,0.1-0.2,0.2-0.2,0.3
			c-0.4,0.6-0.9,1.2-1.5,1.8c-0.5,0.5-1.1,1-1.8,1.5c-0.1,0.1-0.1,0.3-0.2,0.4c-0.1,0.1-0.1,0.3-0.2,0.5c-0.1,0.2-0.1,0.3-0.1,0.5
			c0,0.2,0,0.3,0,0.5c0.1,0,0.2,0,0.3,0c0.1,0,0.2,0,0.2,0c0.1,0,0.1,0,0.1,0c0.3-0.1,0.7-0.2,1-0.3c0.3-0.1,0.6-0.2,0.9-0.4
			c0.1,0,0.2-0.1,0.3-0.1c0.1-0.1,0.2-0.1,0.3,0c0.1,0.1,0.1,0.2,0,0.2s-0.2,0.1-0.2,0.2l-1.9,0.7c-0.2,0.1-0.4,0.1-0.5,0.2
			c-0.2,0.1-0.4,0.1-0.5,0.1c-0.2,0-0.3,0-0.4-0.1s-0.2-0.2-0.2-0.3c0-0.1-0.1-0.2,0-0.4c0-0.1,0-0.3,0.1-0.4
			c0.1-0.3,0.2-0.5,0.3-0.8c-0.4,0.3-0.9,0.6-1.4,0.8c-0.1,0-0.2,0-0.3-0.1C386.6,69.4,386.6,69.3,386.8,69.3z M390.1,67
			c0.5-0.5,1-1,1.4-1.6c0.2-0.2,0.4-0.5,0.6-0.8c0-0.1,0.1-0.1,0.1-0.2s0.1-0.2,0.1-0.3c-0.2,0.1-0.3,0.2-0.4,0.3
			c-0.1,0.1-0.3,0.2-0.3,0.3c-0.3,0.3-0.5,0.5-0.7,0.8c-0.2,0.3-0.4,0.6-0.7,0.9c-0.1,0.2-0.2,0.3-0.3,0.5s-0.2,0.3-0.3,0.5
			c0.1-0.1,0.2-0.2,0.3-0.3C389.9,67.2,390,67.1,390.1,67z"/>
		<path class="st0" d="M391.6,69.3c0.3-0.2,0.7-0.3,1-0.5c0.3-0.2,0.6-0.4,1-0.6c0.2-0.3,0.3-0.6,0.5-0.9s0.4-0.6,0.5-0.8
			c0.2-0.3,0.4-0.5,0.6-0.8c0.2-0.3,0.4-0.5,0.6-0.8c0.2-0.2,0.3-0.4,0.5-0.7s0.4-0.4,0.7-0.6c0.1-0.1,0.3-0.1,0.4-0.1
			c0.2,0,0.3,0.1,0.4,0.2c0,0.1,0,0.2,0,0.4s-0.1,0.2-0.2,0.3c-0.1,0.1-0.2,0.2-0.2,0.3c-0.1,0.1-0.2,0.2-0.2,0.3
			c-0.4,0.6-0.9,1.2-1.5,1.8c-0.5,0.5-1.1,1-1.8,1.5c-0.1,0.1-0.1,0.3-0.2,0.4c-0.1,0.1-0.1,0.3-0.2,0.5c-0.1,0.2-0.1,0.3-0.1,0.5
			c0,0.2,0,0.3,0,0.5c0.1,0,0.2,0,0.3,0c0.1,0,0.2,0,0.2,0c0.1,0,0.1,0,0.1,0c0.3-0.1,0.7-0.2,1-0.3c0.3-0.1,0.6-0.2,0.9-0.4
			c0.1,0,0.2-0.1,0.3-0.1c0.1-0.1,0.2-0.1,0.3,0c0.1,0.1,0.1,0.2,0,0.2s-0.2,0.1-0.2,0.2l-1.9,0.7c-0.2,0.1-0.4,0.1-0.5,0.2
			c-0.2,0.1-0.4,0.1-0.5,0.1c-0.2,0-0.3,0-0.4-0.1s-0.2-0.2-0.2-0.3c0-0.1-0.1-0.2,0-0.4c0-0.1,0-0.3,0.1-0.4
			c0.1-0.3,0.2-0.5,0.3-0.8c-0.4,0.3-0.9,0.6-1.4,0.8c-0.1,0-0.2,0-0.3-0.1C391.4,69.4,391.5,69.3,391.6,69.3z M394.9,67
			c0.5-0.5,1-1,1.4-1.6c0.2-0.2,0.4-0.5,0.6-0.8c0-0.1,0.1-0.1,0.1-0.2s0.1-0.2,0.1-0.3c-0.2,0.1-0.3,0.2-0.4,0.3
			c-0.1,0.1-0.3,0.2-0.3,0.3c-0.3,0.3-0.5,0.5-0.7,0.8c-0.2,0.3-0.4,0.6-0.7,0.9c-0.1,0.2-0.2,0.3-0.3,0.5s-0.2,0.3-0.3,0.5
			c0.1-0.1,0.2-0.2,0.3-0.3C394.7,67.2,394.8,67.1,394.9,67z"/>
		<path class="st0" d="M398.1,68.5c0.2-0.1,0.4-0.2,0.7-0.2c0.2-0.1,0.5-0.1,0.7-0.2c0.1-0.1,0.3-0.1,0.5-0.2c0.2,0,0.3,0,0.5,0.1
			c0.1,0.1,0.1,0.2,0.1,0.3c0.1,0,0.2,0,0.2,0.1c0.1,0.1,0.2,0.3,0.1,0.5s-0.1,0.4-0.2,0.6c0,0.1,0.1,0.1,0.2,0.2
			c0.2,0.1,0.4,0.2,0.6,0.1s0.4,0,0.6-0.1c0.1,0,0.1,0,0.2-0.1s0.2-0.1,0.3-0.2c0.1,0,0.2-0.1,0.3-0.1s0.2,0,0.2,0.1
			c0,0.1,0,0.2,0,0.2s-0.1,0.1-0.2,0.1c-0.1,0-0.2,0.1-0.3,0.1s-0.2,0.1-0.2,0.1c-0.2,0.1-0.3,0.1-0.5,0.1s-0.4,0-0.5,0
			c-0.2,0-0.3,0-0.5-0.1c-0.2,0-0.3-0.1-0.4-0.3l-0.4,0.4c-0.1,0.1-0.3,0.2-0.4,0.4c-0.2,0.1-0.3,0.2-0.5,0.3
			c-0.2,0.1-0.4,0.1-0.6,0.2c-0.2,0-0.4,0-0.6-0.1c-0.2-0.1-0.3-0.2-0.4-0.4c0-0.2,0-0.3,0-0.5c0.1-0.2,0.2-0.3,0.3-0.5
			c0.1-0.2,0.2-0.3,0.3-0.4l0.3-0.3c-0.3,0.1-0.5,0.2-0.7,0.3c-0.2,0.1-0.5,0.2-0.7,0.3c0,0-0.1,0.1-0.2,0.1c-0.1,0-0.1,0.1-0.2,0.1
			c-0.1,0-0.1,0.1-0.2,0.1s-0.1,0-0.2,0c-0.1,0-0.1-0.1-0.1-0.2c0-0.1,0-0.1,0.1-0.2L398.1,68.5z M398.7,69.1c0,0-0.1,0.1-0.2,0.2
			c-0.1,0.1-0.2,0.2-0.3,0.4c-0.1,0.1-0.1,0.3-0.2,0.4c0,0.1,0.1,0.2,0.2,0.2c0.3,0,0.6,0,0.8,0c0.3-0.1,0.5-0.2,0.7-0.4
			c0.1-0.1,0.2-0.2,0.2-0.2c0.1-0.1,0.1-0.2,0.2-0.3c-0.1-0.1-0.1-0.3-0.1-0.5c0-0.2,0-0.3,0.1-0.4c-0.3,0-0.6,0.1-0.8,0.2
			C399.1,68.8,398.9,69,398.7,69.1z"/>
		<path class="st0" d="M402.9,69.3c0.2-0.1,0.5-0.2,0.7-0.4c0.2-0.1,0.5-0.3,0.7-0.4c0-0.2,0-0.4,0.2-0.6c0.1-0.2,0.3-0.3,0.6-0.3
			c0.2,0,0.3,0.1,0.3,0.2c0,0.1,0,0.3-0.1,0.4c-0.1,0.1-0.2,0.2-0.3,0.3c0.1,0,0.2,0.1,0.3,0.1c0.2,0,0.5,0,0.7-0.1
			c0.3-0.1,0.5-0.2,0.7-0.3c0.2-0.1,0.3,0,0.4,0.1s0,0.2-0.1,0.4c-0.1,0.1-0.1,0.2-0.2,0.3s-0.1,0.3-0.2,0.4c0,0.1-0.1,0.3-0.1,0.4
			s0,0.2,0.1,0.3c0.1,0.1,0.2,0.1,0.4,0c0.2-0.1,0.6-0.2,0.9-0.3c0.1-0.1,0.3-0.1,0.4-0.2c0.1-0.1,0.3-0.1,0.4-0.2
			c0,0,0.1,0,0.1-0.1c0.1,0,0.1-0.1,0.2-0.1c0.1,0,0.1,0,0.2,0c0,0,0.1,0.1,0.1,0.2c0,0.1,0,0.1-0.1,0.1c0,0-0.1,0.1-0.2,0.1
			c-0.1,0-0.1,0.1-0.2,0.1c-0.1,0-0.1,0-0.1,0l-0.7,0.3c-0.1,0.1-0.3,0.1-0.5,0.2s-0.4,0.2-0.6,0.2c-0.2,0.1-0.4,0.1-0.5,0.1
			c-0.2,0-0.3-0.1-0.4-0.2c-0.1-0.1-0.1-0.2-0.1-0.3c0-0.1,0-0.2,0-0.3s0-0.2,0.1-0.3c0-0.1,0.1-0.2,0.1-0.3l0.1-0.5
			c-0.1,0-0.2,0-0.3,0.1s-0.4,0.1-0.6,0.1s-0.4,0-0.6,0c-0.2,0-0.3-0.1-0.4-0.2c-0.2,0.1-0.3,0.2-0.5,0.2c-0.1,0.1-0.2,0.1-0.4,0.2
			c-0.1,0.1-0.2,0.1-0.3,0.2c-0.1,0-0.1,0.1-0.2,0.1c-0.1,0.1-0.2,0.1-0.2,0s-0.1-0.1-0.1-0.2C402.8,69.4,402.8,69.3,402.9,69.3z"/>
		<path class="st0" d="M409.1,69.3c0.3-0.1,0.6-0.3,0.8-0.4c0.3-0.2,0.5-0.3,0.8-0.4c0.1,0,0.2-0.1,0.3-0.1c0.1,0,0.2-0.1,0.3-0.1
			c0.2-0.1,0.4-0.1,0.7-0.2c0.3-0.1,0.5-0.1,0.7,0c0.1,0,0.1,0.1,0.2,0.1c0,0.1,0.1,0.1,0.1,0.2c0,0.1,0,0.1,0,0.2
			c0,0.1-0.1,0.1-0.2,0.1c-0.1,0-0.1,0-0.2,0s-0.2,0-0.3,0c-0.2,0-0.3,0-0.5,0c-0.1,0-0.3,0.1-0.4,0.1c-0.2,0.1-0.4,0.3-0.5,0.5
			c-0.1,0.2-0.1,0.4,0.1,0.6c0.2,0.2,0.4,0.3,0.6,0.4s0.5,0.1,0.8,0c0.3,0,0.5-0.1,0.8-0.2c0.3-0.1,0.5-0.1,0.7-0.2
			c0.3-0.1,0.5-0.2,0.7-0.3c0.2-0.1,0.4-0.2,0.5-0.3c0.1-0.1,0.2,0,0.2,0s0.1,0.2,0,0.2c0,0.1-0.1,0.2-0.2,0.2s-0.2,0.1-0.3,0.1
			c-0.4,0.2-0.9,0.4-1.4,0.6c-0.5,0.2-1,0.3-1.5,0.3c-0.2,0-0.5,0-0.7-0.1s-0.4-0.2-0.5-0.4c-0.1-0.2-0.2-0.3-0.3-0.6
			c0-0.2,0-0.4,0.1-0.7v0c-0.1,0.1-0.2,0.1-0.4,0.2c-0.1,0.1-0.2,0.1-0.4,0.2c-0.1,0-0.1,0.1-0.2,0.2c-0.1,0.1-0.2,0.1-0.3,0.1
			c-0.1,0-0.2-0.1-0.2-0.2S409,69.3,409.1,69.3z"/>
		<path class="st0" d="M414.9,69.3c0.1-0.1,0.3-0.2,0.5-0.3c0.2-0.1,0.4-0.2,0.6-0.3c0.2-0.1,0.5-0.2,0.7-0.3s0.4-0.2,0.5-0.2
			c0.1,0,0.2-0.1,0.4-0.1c0.2-0.1,0.4-0.1,0.6-0.2c0.2-0.1,0.4-0.1,0.6-0.1c0.2,0,0.3,0,0.4,0c0.1,0.1,0.2,0.2,0.1,0.3
			s-0.2,0.2-0.3,0.2l-0.7,0.1c-0.2,0-0.3,0.1-0.4,0.2c-0.1,0.1-0.2,0.1-0.4,0.2c-0.1,0-0.2,0.1-0.3,0.3s-0.3,0.3-0.4,0.4
			c-0.1,0.2-0.2,0.3-0.3,0.5c-0.1,0.1-0.1,0.3,0,0.3c0.1,0.1,0.2,0.1,0.3,0c0.1,0,0.3-0.1,0.5-0.1s0.3-0.1,0.4-0.2
			c0.1-0.1,0.2-0.1,0.3-0.2c0.3-0.2,0.6-0.4,0.8-0.6c0.1-0.1,0.2-0.1,0.3,0s0.2,0.2,0.1,0.3c0,0.1-0.1,0.1-0.1,0.2s-0.1,0.1-0.2,0.2
			c0,0-0.1,0.1-0.1,0.2c0,0.1-0.1,0.1,0,0.2c0,0,0.1,0.1,0.1,0.1c0.2,0,0.3,0,0.6,0s0.5-0.1,0.7-0.2c0.2-0.1,0.5-0.2,0.7-0.3
			c0.2-0.1,0.4-0.2,0.6-0.3c0,0,0.1,0,0.2-0.1c0.1,0,0.2-0.1,0.2-0.1s0.2,0,0.2,0c0.1,0,0.1,0,0.2,0.1c0,0.1,0,0.1,0,0.2
			c0,0.1-0.1,0.1-0.2,0.1c-0.1,0-0.2,0.1-0.3,0.1c-0.1,0-0.2,0.1-0.2,0.1c-0.2,0.1-0.4,0.2-0.6,0.3s-0.4,0.2-0.6,0.3
			c-0.1,0.1-0.3,0.1-0.4,0.2c-0.2,0.1-0.3,0.1-0.5,0.2c-0.2,0.1-0.3,0.1-0.5,0.1c-0.2,0-0.3,0-0.5,0c-0.2-0.1-0.3-0.2-0.3-0.3
			c0-0.1,0-0.3,0-0.4l-0.4,0.3c-0.2,0.1-0.4,0.2-0.6,0.3c-0.2,0.1-0.4,0.2-0.6,0.2c-0.2,0-0.4,0-0.5-0.1s-0.2-0.3-0.2-0.5
			c0-0.1,0-0.2,0.1-0.4c0.1-0.2,0.2-0.3,0.3-0.5c0.1-0.2,0.3-0.3,0.5-0.5c0.2-0.2,0.3-0.3,0.5-0.3c-0.1,0-0.2,0.1-0.4,0.1
			c-0.2,0.1-0.4,0.2-0.6,0.3s-0.4,0.2-0.7,0.3c-0.2,0.1-0.5,0.2-0.6,0.3c-0.1,0-0.1,0-0.2,0s-0.1,0-0.1-0.1c0,0,0-0.1,0-0.1
			C414.8,69.4,414.9,69.3,414.9,69.3z"/>
	</g>
	<g>
		<path class="st0" d="M314.3,71.7c0.6-0.3,1.2-0.6,1.8-1c0.6-0.4,1.1-0.8,1.6-1.2c0.2-0.3,0.4-0.6,0.6-1c0.2-0.3,0.4-0.6,0.6-1
			c0.3-0.6,0.7-1.1,1.2-1.7c0.2-0.2,0.4-0.5,0.6-0.7c0.2-0.3,0.5-0.4,0.8-0.5c0.1,0,0.2,0,0.3,0c0.1,0,0.2,0.1,0.3,0.2
			s0.1,0.2,0.1,0.3c0,0.1-0.1,0.2-0.1,0.4c-0.1,0.1-0.1,0.2-0.2,0.3c-0.1,0.1-0.2,0.2-0.2,0.3c-0.5,0.6-1.1,1.3-1.7,1.8
			c-0.6,0.6-1.2,1.2-1.8,1.7l-0.4,0.8c0,0.1-0.1,0.2-0.2,0.5s-0.2,0.5-0.3,0.7c-0.1,0.3-0.1,0.5-0.1,0.7s0,0.4,0.2,0.4
			c0.3,0,0.5-0.1,0.8-0.2c0.2-0.1,0.4-0.3,0.6-0.5c0,0,0-0.1,0.1-0.1c0,0,0.1-0.1,0.1-0.1c-0.1-0.2-0.1-0.5-0.1-0.8
			c0-0.3,0.1-0.5,0.3-0.7c0.1-0.2,0.3-0.3,0.5-0.3c0.2,0,0.3,0.2,0.3,0.5c0,0.2,0,0.4-0.1,0.6c-0.1,0.2-0.2,0.4-0.4,0.6
			c0,0,0,0,0.1,0.1c0,0,0.1,0,0.1,0c0.1,0.1,0.3,0.1,0.4,0.1c0.2,0,0.3,0,0.4-0.1c0.1,0,0.3-0.1,0.5-0.2c0.2-0.1,0.4-0.2,0.5-0.2
			c0.1,0,0.2,0.1,0.2,0.2c0,0.1,0,0.2-0.1,0.3c-0.3,0.1-0.6,0.3-0.9,0.3c-0.3,0.1-0.5,0.1-0.8,0.1c-0.3,0-0.5-0.1-0.8-0.3
			c-0.2,0.2-0.4,0.5-0.7,0.7c-0.3,0.2-0.5,0.4-0.8,0.5c-0.2,0.1-0.4,0.1-0.6,0c-0.2-0.1-0.3-0.2-0.4-0.4c-0.1-0.3-0.1-0.6,0-0.9
			s0.2-0.6,0.3-0.9c0.1-0.2,0.1-0.3,0.2-0.5c0.1-0.2,0.1-0.3,0.2-0.5c-0.3,0.2-0.5,0.3-0.8,0.5c-0.3,0.2-0.5,0.3-0.8,0.5l-1.2,0.6
			c-0.1,0-0.1,0.1-0.2,0.1c-0.1,0-0.1,0-0.2,0c-0.1,0-0.1-0.1-0.1-0.2C314.2,71.8,314.3,71.8,314.3,71.7z M320.4,67
			c0.2-0.2,0.4-0.5,0.6-0.7c0.2-0.3,0.3-0.5,0.4-0.8c-0.1,0.1-0.2,0.1-0.3,0.2s-0.2,0.2-0.3,0.2c-0.2,0.2-0.4,0.4-0.6,0.7
			c-0.2,0.2-0.4,0.5-0.6,0.7c-0.2,0.3-0.4,0.5-0.5,0.8s-0.3,0.5-0.5,0.8c0.3-0.3,0.6-0.6,0.9-0.9S320.1,67.3,320.4,67z"/>
		<path class="st0" d="M321.2,71.8c0.7-0.4,1.5-0.7,2.2-1.1c0.2-0.1,0.4-0.2,0.7-0.4c0.3-0.2,0.5-0.3,0.7-0.3c0.1,0,0.3,0,0.3,0.1
			c0.1,0.1,0.1,0.3,0,0.4c-0.1,0.1-0.2,0.2-0.3,0.3c-0.1,0.1-0.2,0.2-0.3,0.3c-0.3,0.3-0.5,0.6-0.6,1c0,0.1-0.1,0.1-0.1,0.2
			c0,0.1-0.1,0.2-0.1,0.3c0,0.1,0,0.2,0,0.3c0,0.1,0,0.1,0.1,0.2c0,0,0.1,0,0.2,0c0.1-0.1,0.3-0.1,0.4-0.2c0.1-0.1,0.3-0.2,0.4-0.2
			s0.2-0.1,0.2-0.2c0.3-0.2,0.5-0.4,0.7-0.5s0.5-0.4,0.7-0.6c0,0,0.1-0.1,0.2-0.1c0.1,0,0.2,0,0.2,0c0.1,0,0.1,0,0.2,0.1
			c0,0.1,0.1,0.1,0,0.3c0,0.1-0.1,0.3-0.2,0.4c-0.1,0.1-0.2,0.3-0.2,0.4c-0.1,0.1-0.2,0.3-0.3,0.4s-0.2,0.3-0.2,0.4l-1.5,2.7
			c0.4-0.6,0.9-1.1,1.4-1.6c0,0,0.2-0.2,0.3-0.3c0.2-0.2,0.4-0.3,0.6-0.5c0.2-0.2,0.5-0.4,0.7-0.6c0.3-0.2,0.5-0.4,0.7-0.5
			c0.2-0.1,0.4-0.3,0.6-0.3c0.2-0.1,0.3,0,0.3,0c0,0.1,0,0.2-0.1,0.3s-0.2,0.2-0.4,0.3c-0.2,0.1-0.3,0.2-0.5,0.3
			c-0.2,0.1-0.3,0.1-0.3,0.2c-0.3,0.2-0.6,0.4-0.8,0.7c-0.3,0.2-0.5,0.5-0.8,0.7c-0.5,0.5-0.9,1-1.4,1.6c-0.4,0.6-0.8,1.2-1.2,1.8
			c-0.1,0.3-0.3,0.5-0.4,0.7c-0.1,0.3-0.3,0.5-0.4,0.8c-0.1,0.1-0.1,0.2-0.1,0.2c0,0.1-0.1,0.2-0.1,0.2c-0.1,0.1-0.2,0.1-0.3,0
			c-0.1,0-0.2-0.1-0.2-0.2c0-0.1,0-0.2,0-0.3c0.1-0.1,0.1-0.2,0.2-0.2c0.2-0.3,0.3-0.6,0.5-0.9c0.2-0.3,0.3-0.6,0.5-0.9
			c0.3-0.6,0.7-1.3,1-1.9c0.3-0.6,0.7-1.3,1-1.9c0.1-0.2,0.2-0.3,0.2-0.5c0.1-0.2,0.2-0.3,0.2-0.5l-0.8,0.6
			c-0.1,0.1-0.2,0.2-0.4,0.3c-0.1,0.1-0.3,0.2-0.4,0.3c-0.2,0.1-0.3,0.2-0.5,0.2s-0.3,0-0.5-0.1c-0.2-0.1-0.3-0.2-0.4-0.4
			c0-0.2,0-0.4,0.1-0.6c0.1-0.2,0.2-0.5,0.3-0.8s0.3-0.5,0.4-0.7l-0.9,0.4c-0.2,0.1-0.4,0.2-0.6,0.3c-0.2,0.1-0.4,0.2-0.6,0.3
			c-0.1,0-0.2,0.1-0.2,0.2c-0.1,0-0.2,0-0.3,0c-0.1,0-0.1-0.1-0.1-0.2C321.1,71.8,321.1,71.8,321.2,71.8z"/>
	</g>
	<g>
		<path class="st0" d="M396.4,77.7h0.2v0.9c0.1-0.1,0.2-0.2,0.3-0.3s0.2-0.1,0.3-0.1c0.1,0,0.2,0,0.3,0.1s0.2,0.1,0.2,0.3
			c0,0.1,0.1,0.3,0.1,0.5V80h-0.2v-0.8c0-0.2,0-0.3,0-0.4c0-0.1-0.1-0.2-0.1-0.2c-0.1-0.1-0.2-0.1-0.3-0.1c-0.1,0-0.2,0-0.3,0.1
			c-0.1,0.1-0.2,0.2-0.2,0.3c0,0.1,0,0.2,0,0.5V80h-0.2V77.7z"/>
		<path class="st0" d="M399.7,78.3c0.3,0,0.5,0.1,0.6,0.3c0.2,0.2,0.2,0.4,0.2,0.6s-0.1,0.4-0.2,0.6S400,80,399.7,80
			c-0.3,0-0.5-0.1-0.6-0.3c-0.2-0.2-0.2-0.4-0.2-0.6c0-0.2,0.1-0.4,0.2-0.6C399.2,78.4,399.5,78.3,399.7,78.3z M399.7,78.5
			c-0.2,0-0.3,0.1-0.5,0.2s-0.2,0.3-0.2,0.5c0,0.1,0,0.2,0.1,0.3c0.1,0.1,0.1,0.2,0.2,0.2c0.1,0.1,0.2,0.1,0.3,0.1s0.2,0,0.3-0.1
			c0.1-0.1,0.2-0.1,0.2-0.2c0.1-0.1,0.1-0.2,0.1-0.3c0-0.2-0.1-0.3-0.2-0.5S399.9,78.5,399.7,78.5z"/>
		<path class="st0" d="M401.6,78.3h0.2v0.8c0,0.2,0,0.3,0,0.4c0,0.1,0.1,0.2,0.2,0.2c0.1,0.1,0.2,0.1,0.3,0.1c0.1,0,0.2,0,0.3-0.1
			s0.1-0.1,0.2-0.2c0-0.1,0-0.2,0-0.4v-0.8h0.2v0.8c0,0.2,0,0.4-0.1,0.5c-0.1,0.1-0.1,0.2-0.2,0.3c-0.1,0.1-0.2,0.1-0.4,0.1
			s-0.3,0-0.4-0.1c-0.1-0.1-0.2-0.2-0.2-0.3c-0.1-0.1-0.1-0.3-0.1-0.5V78.3z"/>
		<path class="st0" d="M404.9,78.5l-0.1,0.1c-0.1-0.1-0.2-0.2-0.3-0.2c-0.1,0-0.1,0-0.2,0.1c0,0-0.1,0.1-0.1,0.2
			c0,0.1,0,0.1,0.1,0.2c0,0,0.1,0.1,0.3,0.2c0.2,0.1,0.3,0.2,0.3,0.2c0.1,0.1,0.1,0.2,0.1,0.3c0,0.1,0,0.3-0.1,0.3
			c-0.1,0.1-0.2,0.1-0.4,0.1c-0.1,0-0.2,0-0.3-0.1c-0.1,0-0.2-0.1-0.2-0.2l0.1-0.2c0.1,0.1,0.2,0.2,0.3,0.2c0.1,0,0.2,0,0.2-0.1
			c0.1-0.1,0.1-0.1,0.1-0.2c0-0.1,0-0.1-0.1-0.2c0,0-0.1-0.1-0.3-0.2c-0.1-0.1-0.3-0.2-0.3-0.2c-0.1-0.1-0.1-0.2-0.1-0.3
			c0-0.1,0-0.2,0.1-0.3c0.1-0.1,0.2-0.1,0.3-0.1C404.6,78.3,404.8,78.3,404.9,78.5z"/>
		<path class="st0" d="M407.3,79.4l0.2,0.1c-0.1,0.1-0.1,0.2-0.2,0.3s-0.2,0.1-0.3,0.2c-0.1,0-0.2,0.1-0.3,0.1
			c-0.3,0-0.5-0.1-0.6-0.3s-0.2-0.4-0.2-0.6c0-0.2,0.1-0.4,0.2-0.6c0.2-0.2,0.4-0.3,0.7-0.3c0.3,0,0.5,0.1,0.7,0.3
			c0.1,0.2,0.2,0.3,0.2,0.6h-1.5c0,0.2,0.1,0.3,0.2,0.5c0.1,0.1,0.3,0.2,0.4,0.2c0.1,0,0.2,0,0.2,0c0.1,0,0.1-0.1,0.2-0.1
			C407.2,79.6,407.3,79.5,407.3,79.4z M407.3,79c0-0.1-0.1-0.2-0.1-0.3c-0.1-0.1-0.1-0.1-0.2-0.2c-0.1,0-0.2-0.1-0.3-0.1
			c-0.2,0-0.3,0.1-0.4,0.2c-0.1,0.1-0.1,0.2-0.2,0.3H407.3z"/>
		<path class="st0" d="M410,78.3h0.2v0.2c0.1-0.1,0.1-0.2,0.2-0.2s0.1-0.1,0.2-0.1c0.1,0,0.1,0,0.2,0.1l-0.1,0.2c0,0-0.1,0-0.1,0
			c-0.1,0-0.1,0-0.2,0.1c-0.1,0.1-0.1,0.1-0.2,0.3c0,0.1,0,0.3,0,0.6V80H410V78.3z"/>
		<path class="st0" d="M413,79.4l0.2,0.1c-0.1,0.1-0.1,0.2-0.2,0.3s-0.2,0.1-0.3,0.2c-0.1,0-0.2,0.1-0.3,0.1c-0.3,0-0.5-0.1-0.6-0.3
			s-0.2-0.4-0.2-0.6c0-0.2,0.1-0.4,0.2-0.6c0.2-0.2,0.4-0.3,0.7-0.3c0.3,0,0.5,0.1,0.7,0.3c0.1,0.2,0.2,0.3,0.2,0.6h-1.5
			c0,0.2,0.1,0.3,0.2,0.5c0.1,0.1,0.3,0.2,0.4,0.2c0.1,0,0.2,0,0.2,0c0.1,0,0.1-0.1,0.2-0.1C412.9,79.6,413,79.5,413,79.4z M413,79
			c0-0.1-0.1-0.2-0.1-0.3c-0.1-0.1-0.1-0.1-0.2-0.2c-0.1,0-0.2-0.1-0.3-0.1c-0.2,0-0.3,0.1-0.4,0.2c-0.1,0.1-0.1,0.2-0.2,0.3H413z"
			/>
		<path class="st0" d="M414.3,78.3h0.2v0.3c0.1-0.1,0.2-0.2,0.3-0.3c0.1-0.1,0.2-0.1,0.3-0.1c0.1,0,0.2,0,0.3,0.1s0.2,0.1,0.2,0.3
			c0,0.1,0.1,0.3,0.1,0.5V80h-0.2v-0.8c0-0.2,0-0.3,0-0.4c0-0.1-0.1-0.2-0.1-0.2c-0.1-0.1-0.2-0.1-0.3-0.1c-0.1,0-0.2,0-0.3,0.1
			c-0.1,0.1-0.2,0.2-0.2,0.3c0,0.1,0,0.2,0,0.5V80h-0.2V78.3z"/>
		<path class="st0" d="M417,77.7h0.2v0.6h0.3v0.2h-0.3V80H417v-1.5h-0.3v-0.2h0.3V77.7z"/>
	</g>
	<path class="st1" d="M448.1,80.1c-10.3-2.3-21-3.7-21-3.7L424,76l-12.8-0.9L408,75l-3.3-0.1l-3.4-0.1l-3.3,0l-3.3,0l-3.3,0l-3.3,0
		l-3.3,0.1l-3.3,0l-2.2,0l-2.2,0l-2.4,0l-2.3,0l-2.4,0l-2.4,0l-2.4-0.1l-2.4-0.1l-2.4-0.1l-2.3-0.2l-2.3-0.2c0,0-9.3-1.4-12.3-4.5
		l-3.7,2.7l0.1-1.1l0-1.5l-0.8,0c0,0.1-0.1,1.8-0.4,2.1c-0.6,0.6-2.4,1-2.7,1l-1.3,0.1l-1.4,0c0.9-0.1,4.5-0.9,4.9-1.3
		c0.3-0.3,0.3-1.9,0.2-2.5l2.1,0l0,2l2.7-2.1l0.2-0.1l0.2,0.1c3.4,2.6,9.4,3.9,12.6,4.2c3.2,0.4,4.6,0.4,4.6,0.4l2.4,0.1l2.3,0
		l2.3,0l2.3,0l2.2-0.1l2.3-0.1l2.3-0.1l2.2-0.1l2.2-0.1l2.3-0.1l2.2-0.1l2.2-0.1l2.2-0.1l2.9-0.1l2.7-0.1l2.9,0l2.9,0l2.8,0.1
		l2.9,0.1l2.8,0.1l2.9,0.2l2.8,0.2l2.6,0.3l2.8,0.3l2.5,0.3l2.5,0.4l2.5,0.4l2.4,0.5l2.2,0.5C433.4,76.4,449.6,80.4,448.1,80.1z"/>
	<g>
		<g>
			<path class="st0" d="M293.8,50.6c1-0.5,1.9-1.1,2.8-1.8c0.9-0.7,1.8-1.3,2.6-2.1c0.4-0.9,0.8-1.7,1.1-2.6
				c0.4-0.9,0.8-1.7,1.3-2.6c0.2-0.4,0.4-0.7,0.6-1.2c0.2-0.4,0.5-0.8,0.8-1.2c0.3-0.4,0.6-0.7,1-1c0.4-0.3,0.8-0.4,1.2-0.4
				c0.5,0,0.8,0.1,0.9,0.3c0.1,0.2,0.1,0.5,0.1,0.9c-0.1,0.3-0.2,0.7-0.4,1c-0.2,0.3-0.3,0.6-0.5,0.8c-0.5,0.9-1.1,1.7-1.8,2.5
				c-0.6,0.8-1.3,1.6-2.1,2.3c-0.2,0.3-0.5,0.5-0.8,0.8c-0.3,0.2-0.5,0.5-0.8,0.7l-1.2,2.7c0,0.7,0.2,1.1,0.5,1.4
				c0.3,0.2,0.7,0.3,1.2,0.2c0.3-0.1,0.6-0.2,0.9-0.3c0.3-0.1,0.6-0.2,0.9-0.4c0.2-0.1,0.4-0.3,0.7-0.5c0.3-0.2,0.5-0.3,0.7-0.3
				c0.2,0,0.3,0.1,0.4,0.3c0.1,0.2,0,0.4-0.2,0.5l-1.6,0.9c-0.5,0.2-1,0.4-1.6,0.6c-0.6,0.2-1.1,0.3-1.7,0.1
				c-0.4-0.1-0.8-0.4-1.1-0.9c-0.4,0.9-0.8,1.8-1.3,2.7c-0.4,0.9-0.9,1.8-1.4,2.7c-0.1,0.1-0.2,0.3-0.4,0.6
				c-0.2,0.3-0.4,0.6-0.6,0.9c-0.2,0.3-0.4,0.4-0.6,0.6c-0.2,0.1-0.4,0-0.6-0.3c-0.1-0.2-0.2-0.4-0.2-0.6c0-0.2,0-0.5,0-0.7
				s0.1-0.5,0.1-0.7c0.1-0.2,0.1-0.4,0.1-0.6c0.1-0.5,0.4-1,0.7-1.7c0.3-0.6,0.7-1.2,1.1-1.8c0.4-0.6,0.9-1.2,1.4-1.7s1-0.9,1.6-1.2
				c0.1-0.2,0.2-0.5,0.3-0.7s0.2-0.4,0.3-0.6l-1.4,1.1c-0.4,0.3-0.8,0.6-1.2,0.8c-0.4,0.3-0.8,0.5-1.3,0.8c-0.1,0.1-0.3,0.2-0.5,0.3
				c-0.2,0.1-0.3,0.1-0.5,0c-0.1-0.1-0.2-0.2-0.2-0.4C293.6,50.8,293.7,50.7,293.8,50.6z M294,56.9c0.6-0.8,1.2-1.6,1.7-2.5
				c0.5-0.9,1-1.8,1.5-2.7c-0.8,0.6-1.5,1.4-2.2,2.4C294.4,55,294,56,294,56.9z M303.3,42.4c0.5-0.6,0.9-1.2,1.2-1.8
				c0.1-0.2,0.2-0.4,0.3-0.6c0.1-0.2,0.2-0.5,0.2-0.7c-0.2,0.1-0.5,0.3-0.7,0.5c-0.2,0.2-0.4,0.4-0.6,0.6c-0.4,0.5-0.8,1-1.1,1.5
				c-0.3,0.5-0.6,1.1-0.9,1.6c-0.2,0.3-0.3,0.7-0.5,1c-0.2,0.3-0.3,0.6-0.5,1c0.5-0.5,0.9-0.9,1.3-1.4
				C302.5,43.5,302.9,43,303.3,42.4z"/>
			<path class="st0" d="M303.3,50.1c0.4-0.2,0.8-0.5,1.3-0.8c0.4-0.3,0.9-0.5,1.3-0.7c0.3-0.5,0.7-1,1.2-1.4
				c0.5-0.4,1.1-0.6,1.7-0.8c0.3-0.1,0.7-0.1,1.1-0.1c0.4,0,0.8,0.2,1,0.5c0.2,0.2,0.2,0.4,0.2,0.6c-0.1,0.2-0.2,0.4-0.4,0.6
				c-0.2,0.2-0.4,0.4-0.6,0.5c-0.2,0.2-0.4,0.3-0.5,0.4c-0.4,0.3-0.8,0.5-1.3,0.6c-0.5,0.2-1,0.2-1.5,0.2l-0.1,0
				c0.1,0.5,0.3,0.9,0.7,1.1c0.3,0.3,0.7,0.4,1.2,0.5c0.4,0.1,0.9,0.1,1.4,0.1c0.5,0,0.9-0.1,1.3-0.2c0.5-0.1,1.1-0.3,1.6-0.5
				c0.5-0.2,1-0.4,1.5-0.7c0.2-0.1,0.5-0.3,0.7-0.4c0.2-0.1,0.5-0.2,0.7-0.4c0.2-0.1,0.3,0,0.5,0c0.2,0.1,0.2,0.2,0.1,0.4
				c-0.1,0.2-0.3,0.3-0.5,0.4c-0.2,0.1-0.4,0.2-0.5,0.2l-1.7,0.9c-1,0.5-2.1,0.9-3.1,1.2c-0.5,0.1-0.9,0.2-1.4,0.2
				c-0.5,0-0.9-0.1-1.3-0.2c-0.4-0.1-0.8-0.4-1.1-0.7c-0.3-0.3-0.6-0.7-0.8-1.2c-0.1-0.2-0.1-0.4-0.2-0.5c0-0.2,0-0.4,0-0.5
				c-0.2,0.1-0.5,0.3-0.7,0.4c-0.2,0.2-0.4,0.3-0.6,0.4c-0.1,0.1-0.3,0.1-0.4,0.3c-0.2,0.1-0.4,0.2-0.6,0c-0.1-0.1-0.2-0.2-0.2-0.4
				C303.1,50.2,303.2,50.1,303.3,50.1z M306.8,48.9c0.6-0.1,1.1-0.2,1.6-0.5c0.5-0.3,0.9-0.6,1.3-1c-0.3-0.1-0.6-0.1-1,0
				c-0.3,0.1-0.6,0.2-0.8,0.3c-0.3,0.2-0.5,0.3-0.7,0.6C307,48.4,306.9,48.7,306.8,48.9z"/>
			<path class="st0" d="M315.6,49.4c0.4-0.2,0.8-0.5,1.3-0.8c0.4-0.3,0.9-0.5,1.3-0.7c0.3-0.5,0.7-1,1.2-1.4
				c0.5-0.4,1.1-0.6,1.7-0.8c0.3-0.1,0.7-0.1,1.1-0.1c0.4,0,0.8,0.2,1,0.5c0.2,0.2,0.2,0.4,0.2,0.6c-0.1,0.2-0.2,0.4-0.4,0.6
				c-0.2,0.2-0.4,0.4-0.6,0.5c-0.2,0.2-0.4,0.3-0.5,0.4c-0.4,0.3-0.8,0.5-1.3,0.6c-0.5,0.2-1,0.2-1.5,0.2l-0.1,0
				c0.1,0.5,0.3,0.9,0.7,1.1s0.7,0.4,1.2,0.5c0.4,0.1,0.9,0.1,1.4,0.1c0.5,0,0.9-0.1,1.3-0.2c0.5-0.1,1.1-0.3,1.6-0.5
				c0.5-0.2,1-0.4,1.5-0.7c0.2-0.1,0.5-0.3,0.7-0.4c0.2-0.1,0.5-0.2,0.7-0.4c0.2-0.1,0.3,0,0.5,0c0.2,0.1,0.2,0.2,0.1,0.4
				c-0.1,0.2-0.3,0.3-0.5,0.4c-0.2,0.1-0.4,0.2-0.5,0.2l-1.7,0.9c-1,0.5-2.1,0.9-3.1,1.2c-0.5,0.1-0.9,0.2-1.4,0.2
				c-0.5,0-0.9-0.1-1.3-0.2c-0.4-0.1-0.8-0.4-1.1-0.7c-0.3-0.3-0.6-0.7-0.8-1.2c-0.1-0.2-0.1-0.4-0.2-0.5c0-0.2,0-0.4,0-0.5
				c-0.2,0.1-0.5,0.3-0.7,0.4c-0.2,0.2-0.4,0.3-0.6,0.4c-0.1,0.1-0.3,0.1-0.4,0.3c-0.2,0.1-0.4,0.2-0.6,0c-0.1-0.1-0.2-0.2-0.2-0.4
				C315.4,49.5,315.4,49.4,315.6,49.4z M319,48.2c0.6-0.1,1.1-0.2,1.6-0.5c0.5-0.3,0.9-0.6,1.3-1c-0.3-0.1-0.6-0.1-1,0
				c-0.3,0.1-0.6,0.2-0.8,0.3c-0.3,0.2-0.5,0.3-0.7,0.6C319.3,47.7,319.1,48,319,48.2z"/>
			<path class="st0" d="M327.8,48.7c0.7-0.4,1.4-0.8,2-1.2c0.6-0.4,1.3-0.9,1.9-1.4c0.3-0.7,0.6-1.3,1-1.9c0.4-0.6,0.7-1.2,1-1.8
				c0.4-0.6,0.7-1.1,1.1-1.7c0.4-0.6,0.7-1.1,1.1-1.7c0.3-0.5,0.7-1,1-1.5c0.4-0.5,0.8-0.9,1.3-1.2c0.2-0.2,0.5-0.3,0.9-0.3
				s0.6,0.1,0.8,0.5c0.1,0.2,0.1,0.5,0.1,0.7c-0.1,0.2-0.2,0.5-0.3,0.7c-0.1,0.3-0.3,0.5-0.5,0.7c-0.2,0.2-0.3,0.4-0.4,0.6
				c-0.8,1.4-1.8,2.6-2.9,3.8c-1.1,1.2-2.2,2.3-3.5,3.4c-0.1,0.3-0.2,0.6-0.3,0.9c-0.1,0.3-0.2,0.7-0.3,1c-0.1,0.4-0.2,0.7-0.2,1
				c0,0.3,0,0.7,0.1,0.9c0.2-0.1,0.5-0.1,0.7-0.1c0.2,0,0.4-0.1,0.5-0.1c0.2,0,0.3,0,0.3-0.1c0.7-0.2,1.3-0.4,2-0.7
				c0.7-0.3,1.3-0.6,1.9-0.9c0.2-0.1,0.4-0.2,0.6-0.3c0.2-0.2,0.5-0.2,0.7-0.1c0.3,0.2,0.3,0.3,0.1,0.5c-0.2,0.2-0.3,0.3-0.5,0.4
				l-3.9,1.7c-0.4,0.2-0.8,0.3-1.1,0.5c-0.4,0.2-0.7,0.3-1.1,0.3c-0.3,0.1-0.6,0-0.8-0.1c-0.2-0.1-0.4-0.3-0.5-0.6
				c-0.1-0.2-0.1-0.5-0.1-0.8c0-0.3,0-0.6,0.1-0.8c0.1-0.6,0.3-1.1,0.5-1.7c-0.9,0.7-1.9,1.3-2.9,1.9c-0.2,0.1-0.4,0-0.6-0.2
				C327.4,49,327.5,48.8,327.8,48.7z M334.5,43.5c1-1.1,1.9-2.2,2.8-3.4c0.4-0.5,0.7-1.1,1.1-1.7c0-0.1,0.1-0.3,0.2-0.4
				c0.1-0.2,0.2-0.4,0.2-0.5c-0.3,0.2-0.6,0.4-0.9,0.7c-0.3,0.3-0.5,0.5-0.7,0.7c-0.5,0.6-1,1.1-1.4,1.8c-0.4,0.6-0.9,1.2-1.3,1.9
				c-0.2,0.4-0.5,0.8-0.7,1.1c-0.2,0.4-0.4,0.7-0.6,1.1c0.2-0.2,0.4-0.4,0.6-0.6C334.1,43.9,334.3,43.7,334.5,43.5z"/>
			<path class="st0" d="M348,47.5c0.7-0.4,1.4-0.8,2-1.2c0.6-0.4,1.3-0.9,1.9-1.4c0.3-0.7,0.6-1.3,1-1.9c0.4-0.6,0.7-1.2,1-1.8
				c0.4-0.6,0.7-1.1,1.1-1.7c0.4-0.6,0.7-1.1,1.1-1.7c0.3-0.5,0.7-1,1-1.5c0.4-0.5,0.8-0.9,1.3-1.2c0.2-0.2,0.5-0.3,0.9-0.3
				c0.4-0.1,0.6,0.1,0.8,0.5c0.1,0.2,0.1,0.5,0.1,0.7c-0.1,0.2-0.2,0.5-0.3,0.7c-0.1,0.3-0.3,0.5-0.5,0.7c-0.2,0.2-0.3,0.4-0.4,0.6
				c-0.8,1.4-1.8,2.6-2.9,3.8c-1.1,1.2-2.2,2.3-3.5,3.4c-0.1,0.3-0.2,0.6-0.3,0.9c-0.1,0.3-0.2,0.7-0.3,1c-0.1,0.4-0.2,0.7-0.2,1
				c0,0.3,0,0.7,0.1,0.9c0.2-0.1,0.5-0.1,0.7-0.1c0.2,0,0.4-0.1,0.5-0.1c0.2,0,0.3,0,0.3-0.1c0.7-0.2,1.3-0.4,2-0.7
				c0.7-0.3,1.3-0.6,1.9-0.9c0.2-0.1,0.4-0.2,0.6-0.3c0.2-0.2,0.5-0.2,0.7-0.1c0.3,0.2,0.3,0.3,0.1,0.5c-0.2,0.2-0.3,0.3-0.5,0.4
				l-3.9,1.7c-0.4,0.2-0.8,0.3-1.1,0.5c-0.4,0.2-0.7,0.3-1.1,0.3c-0.3,0.1-0.6,0-0.8-0.1c-0.2-0.1-0.4-0.3-0.5-0.6
				c-0.1-0.2-0.1-0.5-0.1-0.8c0-0.3,0-0.6,0.1-0.8c0.1-0.6,0.3-1.1,0.5-1.7c-0.9,0.7-1.9,1.3-2.9,1.9c-0.2,0.1-0.4,0-0.6-0.2
				C347.7,47.8,347.8,47.7,348,47.5z M354.8,42.4c1-1.1,1.9-2.2,2.8-3.4c0.4-0.5,0.7-1.1,1.1-1.7c0-0.1,0.1-0.3,0.2-0.4
				c0.1-0.2,0.2-0.4,0.2-0.5c-0.3,0.2-0.6,0.4-0.9,0.7s-0.5,0.5-0.7,0.7c-0.5,0.6-1,1.1-1.4,1.8c-0.4,0.6-0.9,1.2-1.3,1.9
				c-0.2,0.4-0.5,0.8-0.7,1.1c-0.2,0.4-0.4,0.7-0.6,1.1c0.2-0.2,0.4-0.4,0.6-0.6C354.4,42.8,354.6,42.6,354.8,42.4z"/>
			<path class="st0" d="M361.5,45.1c0.1-0.1,0.3-0.2,0.6-0.3c0.3-0.2,0.6-0.3,1-0.4c0.3-0.1,0.6-0.1,0.8-0.1c0.2,0,0.3,0.3,0.3,0.6
				c0,0.2-0.1,0.4-0.3,0.6c-0.1,0.2-0.2,0.4-0.3,0.6c-0.1,0.3-0.2,0.7-0.3,1.1c-0.1,0.4,0,0.8,0.2,1.1c0.4,0,0.8,0,1.3-0.2
				c0.5-0.2,0.9-0.3,1.3-0.5c0.1-0.1,0.3-0.2,0.6-0.4c0.3-0.2,0.6-0.4,1-0.6c0.3-0.2,0.7-0.3,1-0.4c0.3-0.1,0.5-0.1,0.6,0.1
				c0.1,0.2,0.1,0.3-0.1,0.5s-0.4,0.4-0.7,0.5c-0.3,0.2-0.6,0.3-0.9,0.5c-0.3,0.1-0.5,0.2-0.6,0.3c-0.5,0.3-1,0.6-1.5,0.8
				c-0.5,0.3-1,0.5-1.6,0.6c-0.5,0.1-0.8,0-1-0.3c-0.2-0.3-0.3-0.6-0.3-1c0-0.4,0-0.9,0.1-1.4c0.1-0.5,0.2-1,0.3-1.4
				c-0.5,0.2-1,0.5-1.5,0.7s-1,0.4-1.4,0.7c-0.4,0.2-0.8,0.4-1.2,0.7c-0.2,0.1-0.5,0-0.6-0.2c-0.2-0.2-0.1-0.4,0.2-0.5L361.5,45.1z
				 M366.5,37.9c-0.1,0.2-0.2,0.4-0.4,0.6c-0.2,0.2-0.5,0.2-0.7,0c-0.3-0.2-0.4-0.4-0.3-0.7c0.1-0.3,0.3-0.6,0.5-0.8
				C365.9,36.8,366.8,37.1,366.5,37.9"/>
			<path class="st0" d="M368.6,46.4c1.2-0.7,2.4-1.5,3.6-2.4c1.1-0.9,2.2-1.8,3.3-2.8l0.6-0.6c0.3-0.7,0.6-1.4,1-2.1
				c0.3-0.7,0.7-1.4,1.1-2c0.3-0.4,0.5-0.8,0.8-1.2c0.3-0.4,0.7-0.7,1.1-0.9c0.1-0.1,0.3-0.1,0.5-0.2c0.2,0,0.4,0,0.5,0
				c0.2,0,0.3,0.1,0.4,0.2c0.1,0.1,0.2,0.3,0.2,0.5c0,0.2-0.1,0.4-0.2,0.6c-0.1,0.2-0.2,0.4-0.3,0.6c-0.1,0.2-0.3,0.4-0.4,0.5
				c-0.2,0.2-0.3,0.3-0.4,0.5c-0.4,0.4-0.7,0.8-1.1,1.2c-0.4,0.4-0.8,0.8-1.2,1.2c-0.2,0.2-0.5,0.5-0.7,0.8
				c-0.2,0.3-0.5,0.5-0.7,0.7l-1.8,4.2c0.2-0.2,0.4-0.3,0.7-0.5c0.2-0.2,0.5-0.3,0.7-0.5c0.3-0.2,0.6-0.4,1-0.7
				c0.4-0.3,0.8-0.5,1.2-0.7c0.4-0.2,0.8-0.3,1.2-0.4c0.4-0.1,0.8,0,1.2,0.2c0.2,0.1,0.3,0.2,0.4,0.4c0.1,0.2,0.1,0.3,0,0.5
				c0,0.2-0.1,0.3-0.2,0.5c-0.1,0.2-0.2,0.3-0.4,0.5c-0.6,0.6-1.3,1-2.2,1.3c-0.8,0.3-1.7,0.5-2.5,0.5c0.4,0.4,0.9,0.8,1.4,1
				c0.5,0.3,1.1,0.3,1.7,0.2c0.8-0.2,1.6-0.4,2.3-0.7c0.7-0.3,1.5-0.7,2.1-1.1c0.1-0.1,0.3-0.2,0.4-0.3c0.2-0.1,0.4-0.2,0.5-0.1
				c0.1,0.1,0.2,0.2,0.2,0.3c0,0.1,0,0.3-0.2,0.4c-0.1,0.1-0.2,0.1-0.2,0.2c-0.1,0-0.2,0.1-0.3,0.1c-0.3,0.2-0.6,0.4-0.9,0.6
				c-0.3,0.2-0.6,0.3-0.9,0.5c-0.5,0.3-1,0.6-1.5,0.8c-0.5,0.3-1,0.4-1.5,0.5c-0.5,0.1-1,0.1-1.5,0c-0.5-0.1-1-0.4-1.5-0.8
				c-0.3-0.2-0.5-0.5-0.7-0.7c-0.2-0.3-0.5-0.5-0.7-0.8c-0.2,0.2-0.4,0.5-0.6,0.7c-0.2,0.2-0.4,0.5-0.5,0.7
				c-0.1,0.1-0.1,0.2-0.2,0.3c-0.1,0.1-0.2,0.2-0.3,0.3c-0.2,0.2-0.4,0.3-0.5,0.4c-0.2,0.1-0.4-0.1-0.5-0.5c-0.1-0.2-0.1-0.3,0-0.4
				c0.1-0.1,0.1-0.2,0.2-0.4l1-1.6c0.3-0.5,0.6-1,0.9-1.6c0.3-0.5,0.5-1,0.8-1.6l0.3-0.6c-0.4,0.4-0.8,0.7-1.3,1.1
				c-0.4,0.3-0.8,0.7-1.3,1c-0.5,0.4-1,0.7-1.4,1.1c-0.5,0.3-1,0.7-1.5,1c-0.1,0.1-0.3,0.2-0.4,0.4c-0.2,0.1-0.4,0.2-0.6,0.2
				c-0.2,0-0.3-0.1-0.4-0.3C368.3,46.6,368.4,46.5,368.6,46.4z M375.9,45.6c0.7-0.1,1.4-0.3,2-0.6c0.6-0.3,1.1-0.8,1.6-1.3
				c-0.2,0-0.4,0.1-0.6,0.1c-0.2,0.1-0.4,0.1-0.6,0.2c-0.2,0.1-0.5,0.2-0.7,0.3c-0.3,0.2-0.6,0.3-0.9,0.5c-0.3,0.2-0.5,0.3-0.7,0.5
				c-0.2,0.2-0.3,0.2-0.4,0.3L375.9,45.6z M378.5,37.9c0.3-0.3,0.5-0.7,0.8-1c0.3-0.4,0.6-0.8,0.8-1.2c-0.6,0.4-1,0.8-1.5,1.4
				c-0.4,0.6-0.8,1.2-1.1,1.9L378.5,37.9z"/>
			<path class="st0" d="M384.2,45.4c0.4-0.2,0.8-0.5,1.3-0.8c0.4-0.3,0.9-0.5,1.3-0.7c0.3-0.5,0.7-1,1.2-1.4
				c0.5-0.4,1.1-0.6,1.7-0.8c0.3-0.1,0.7-0.1,1.1-0.1c0.4,0,0.8,0.2,1,0.5c0.2,0.2,0.2,0.4,0.2,0.6c-0.1,0.2-0.2,0.4-0.4,0.6
				c-0.2,0.2-0.4,0.4-0.6,0.5c-0.2,0.2-0.4,0.3-0.5,0.4c-0.4,0.3-0.8,0.5-1.3,0.6c-0.5,0.2-1,0.2-1.5,0.2l-0.1,0
				c0.1,0.5,0.3,0.9,0.7,1.1s0.7,0.4,1.2,0.5c0.4,0.1,0.9,0.1,1.4,0.1c0.5,0,0.9-0.1,1.3-0.2c0.5-0.1,1.1-0.3,1.6-0.5
				c0.5-0.2,1-0.4,1.5-0.7c0.2-0.1,0.5-0.3,0.7-0.4c0.2-0.1,0.5-0.2,0.7-0.4c0.2-0.1,0.3,0,0.5,0c0.2,0.1,0.2,0.2,0.1,0.4
				c-0.1,0.2-0.3,0.3-0.5,0.4c-0.2,0.1-0.4,0.2-0.5,0.2l-1.7,0.9c-1,0.5-2.1,0.9-3.1,1.2c-0.5,0.1-0.9,0.2-1.4,0.2
				c-0.5,0-0.9-0.1-1.3-0.2c-0.4-0.1-0.8-0.4-1.1-0.7c-0.3-0.3-0.6-0.7-0.8-1.2c-0.1-0.2-0.1-0.4-0.2-0.5c0-0.2,0-0.4,0-0.5
				c-0.2,0.1-0.5,0.3-0.7,0.4c-0.2,0.2-0.4,0.3-0.6,0.4c-0.1,0.1-0.3,0.1-0.4,0.3c-0.2,0.1-0.4,0.2-0.6,0c-0.1-0.1-0.2-0.2-0.2-0.4
				C384,45.6,384.1,45.5,384.2,45.4z M387.7,44.3c0.6-0.1,1.1-0.2,1.6-0.5c0.5-0.3,0.9-0.6,1.3-1c-0.3-0.1-0.6-0.1-1,0
				c-0.3,0.1-0.6,0.2-0.8,0.3c-0.3,0.2-0.5,0.3-0.7,0.6C387.9,43.8,387.7,44,387.7,44.3z"/>
			<path class="st0" d="M406.6,44.1c1.4-0.8,2.8-1.6,4.1-2.5c1.3-0.9,2.4-1.8,3.4-2.9l1.1-2.3c0.4-0.7,0.7-1.4,1.2-2.1
				c0.4-0.7,0.9-1.3,1.6-1.8c0.2-0.1,0.4-0.2,0.7-0.3c0.3-0.1,0.6-0.2,0.8-0.2c0.3,0,0.5,0,0.6,0.2c0.2,0.1,0.2,0.4,0.1,0.8
				c-0.1,0.3-0.2,0.6-0.4,0.9c-0.2,0.3-0.4,0.6-0.7,0.9c-0.2,0.3-0.5,0.6-0.8,0.8c-0.3,0.3-0.5,0.5-0.7,0.7c-0.5,0.5-0.9,1-1.4,1.5
				c-0.5,0.5-1,1-1.5,1.4c-0.1,0.3-0.2,0.5-0.4,0.8c-0.1,0.2-0.2,0.5-0.3,0.8c-0.2,0.4-0.4,0.8-0.6,1.2s-0.4,0.8-0.6,1.2
				c0.7-0.5,1.4-0.9,2.1-1.3c0.7-0.4,1.4-0.8,2.2-1.1c0.2-0.2,0.5-0.3,0.9-0.4c0.3-0.1,0.7-0.1,1-0.1c0.4,0.1,0.6,0.3,0.7,0.6
				c0.1,0.3,0.1,0.6-0.1,1c-0.1,0.3-0.3,0.6-0.5,0.9c-0.2,0.3-0.4,0.6-0.6,0.9c-0.2,0.3-0.4,0.6-0.5,0.9c-0.1,0.3-0.2,0.6-0.2,0.9
				c0.6-0.1,1.2-0.3,1.8-0.6c0.6-0.3,1.2-0.6,1.7-0.9c0.2-0.1,0.4-0.2,0.6-0.4c0.2-0.2,0.4-0.3,0.6-0.4c0.1-0.1,0.2-0.1,0.3-0.1
				c0.1,0,0.2,0.1,0.3,0.2c0.1,0.1,0.1,0.2,0.1,0.3c0,0.1-0.1,0.2-0.2,0.3c-0.5,0.3-1,0.6-1.5,0.9c-0.5,0.3-1,0.6-1.5,0.9
				c-0.2,0.1-0.4,0.3-0.7,0.5c-0.3,0.2-0.5,0.3-0.8,0.4c-0.3,0.1-0.6,0.2-0.9,0.2c-0.3,0-0.5-0.1-0.8-0.4c-0.2-0.2-0.3-0.4-0.3-0.6
				s0-0.5,0.1-0.7c0.1-0.2,0.2-0.4,0.3-0.7c0.1-0.2,0.3-0.4,0.4-0.6c0.2-0.3,0.5-0.7,0.7-1.1c0.2-0.4,0.3-0.8,0.4-1.2
				c-0.2,0-0.4,0-0.6,0.1c-0.2,0.1-0.4,0.1-0.7,0.2c-0.2,0.1-0.4,0.2-0.7,0.3c-0.2,0.1-0.4,0.2-0.6,0.2c-0.5,0.3-1,0.5-1.4,0.8
				c-0.5,0.3-0.9,0.6-1.3,0.9c-0.7,0.6-1.2,1-1.5,1.3c-0.3,0.3-0.5,0.5-0.6,0.6c-0.1,0.1-0.2,0.2-0.4,0.3c-0.1,0.1-0.3,0-0.5-0.1
				c-0.2-0.2-0.3-0.3-0.3-0.5c0-0.2,0.1-0.3,0.2-0.4c0.6-0.7,1.2-1.5,1.7-2.3c0.5-0.8,1-1.6,1.4-2.5c-0.6,0.5-1.2,1-1.8,1.5
				c-0.6,0.5-1.2,0.9-1.8,1.3c-0.4,0.3-0.7,0.5-1.1,0.8c-0.4,0.2-0.7,0.5-1.1,0.7c-0.1,0.1-0.2,0.1-0.4,0.2c-0.1,0.1-0.2,0.1-0.4,0
				c-0.1-0.1-0.2-0.2-0.2-0.4C406.4,44.3,406.4,44.2,406.6,44.1z M417.1,35.7c0.3-0.3,0.6-0.7,0.9-1c0.3-0.4,0.5-0.8,0.7-1.2
				c-0.5,0.3-1,0.7-1.4,1.1c-0.4,0.5-0.7,0.9-1,1.4l-0.7,1.2c0.2-0.3,0.5-0.5,0.7-0.8C416.6,36.2,416.8,36,417.1,35.7z"/>
			<path class="st0" d="M425.9,41.5c0.4-0.2,0.9-0.4,1.4-0.6c0.5-0.2,1-0.3,1.4-0.5c0.3-0.2,0.6-0.3,1-0.4c0.4-0.1,0.7-0.1,1,0.1
				c0.2,0.1,0.3,0.3,0.2,0.5c0.2,0,0.3,0,0.5,0.1c0.3,0.3,0.4,0.6,0.4,1.1c-0.1,0.4-0.2,0.8-0.4,1.2c0.1,0.1,0.2,0.2,0.4,0.3
				c0.4,0.2,0.8,0.3,1.2,0.2c0.4,0,0.8-0.1,1.2-0.3c0.1,0,0.3-0.1,0.5-0.2s0.5-0.3,0.7-0.4c0.2-0.1,0.5-0.2,0.7-0.2
				c0.2,0,0.3,0,0.4,0.1c0.1,0.2,0.1,0.3,0,0.5c-0.1,0.1-0.3,0.2-0.4,0.3c-0.2,0.1-0.4,0.2-0.6,0.3c-0.2,0.1-0.3,0.1-0.4,0.2
				c-0.3,0.1-0.7,0.2-1.1,0.3c-0.4,0.1-0.7,0.1-1.1,0.2c-0.4,0-0.7,0-1.1-0.1c-0.4-0.1-0.7-0.2-0.9-0.5l-0.7,0.8
				c-0.3,0.3-0.6,0.5-0.9,0.8c-0.3,0.3-0.7,0.5-1,0.7c-0.4,0.2-0.8,0.3-1.2,0.4c-0.4,0.1-0.8,0-1.2-0.1c-0.5-0.2-0.8-0.4-0.9-0.8
				c-0.1-0.3-0.1-0.7,0-1.1c0.1-0.4,0.3-0.7,0.5-1.1c0.2-0.4,0.5-0.7,0.7-0.9l0.6-0.7c-0.5,0.2-1,0.5-1.5,0.7
				c-0.5,0.3-1,0.5-1.5,0.8c-0.1,0.1-0.2,0.1-0.3,0.2c-0.1,0.1-0.3,0.2-0.4,0.2c-0.1,0.1-0.3,0.1-0.4,0.2c-0.1,0-0.2,0-0.3,0
				c-0.2-0.1-0.2-0.2-0.2-0.4c0-0.2,0.1-0.3,0.2-0.4L425.9,41.5z M427.1,42.6c-0.1,0.1-0.2,0.3-0.5,0.5c-0.2,0.3-0.4,0.5-0.6,0.8
				c-0.2,0.3-0.3,0.6-0.3,0.8c0,0.2,0.1,0.4,0.5,0.4c0.6,0.1,1.2,0,1.7-0.2c0.5-0.2,1-0.5,1.4-0.9c0.2-0.2,0.3-0.4,0.5-0.5
				c0.2-0.2,0.3-0.4,0.4-0.6c-0.1-0.3-0.2-0.6-0.2-1c0-0.3,0-0.6,0.2-0.9c-0.6,0.1-1.2,0.3-1.7,0.5S427.5,42.2,427.1,42.6z"/>
			<path class="st0" d="M435.8,42.5c0.5-0.3,1-0.6,1.5-0.9c0.5-0.3,1-0.6,1.5-0.8c0.2-0.1,0.4-0.2,0.7-0.4c0.3-0.2,0.6-0.3,0.9-0.5
				c0.3-0.2,0.6-0.3,0.9-0.4c0.3-0.1,0.5-0.1,0.7,0c0.2,0.1,0.3,0.3,0.3,0.5c0,0.2-0.1,0.4-0.2,0.6c-0.1,0.2-0.2,0.4-0.4,0.6
				c-0.2,0.2-0.3,0.3-0.3,0.5c-0.1,0.2-0.2,0.4-0.3,0.6c-0.1,0.2-0.2,0.4-0.3,0.6c0.5-0.4,0.9-0.8,1.3-1.2c0.4-0.3,0.7-0.6,1-0.9
				c0.3-0.2,0.6-0.5,0.9-0.6c0.3-0.2,0.6-0.3,0.9-0.5c0.3-0.2,0.7-0.2,1-0.1c0.3,0.1,0.5,0.4,0.4,0.9c0,0.3-0.1,0.6-0.2,0.9
				c-0.1,0.3-0.2,0.6-0.4,0.9c0.5-0.3,1-0.7,1.5-1c0.5-0.3,1-0.7,1.5-1c0.4-0.3,0.9-0.6,1.3-0.9c0.5-0.3,1-0.5,1.5-0.6
				c0.3-0.1,0.6,0,0.8,0.1c0.2,0.1,0.4,0.3,0.4,0.5c0.1,0.2,0.1,0.5,0.1,0.7c0,0.3-0.1,0.5-0.2,0.8c-0.3,0.5-0.5,1-0.8,1.4
				c-0.3,0.4-0.5,0.9-0.8,1.4c0.4,0,0.8,0,1.3-0.2c0.5-0.2,0.9-0.4,1.2-0.5c0.3-0.1,0.6-0.3,0.9-0.4c0.3-0.1,0.5-0.3,0.8-0.4
				c0.1-0.1,0.2-0.1,0.3-0.2c0.1-0.1,0.3-0.2,0.4-0.3c0.1-0.1,0.3-0.2,0.4-0.2c0.1,0,0.3,0,0.4,0c0.2,0.1,0.3,0.2,0.2,0.4
				c-0.1,0.2-0.3,0.3-0.5,0.5c-0.2,0.2-0.5,0.3-0.7,0.4s-0.4,0.2-0.5,0.3c-0.3,0.2-0.6,0.4-0.9,0.5c-0.3,0.2-0.6,0.3-0.9,0.5
				c-0.4,0.2-0.9,0.4-1.4,0.7c-0.5,0.2-1,0.3-1.5,0.1c-0.3-0.1-0.4-0.2-0.5-0.4c-0.1-0.2-0.1-0.4-0.1-0.6c0-0.2,0.1-0.4,0.2-0.6
				c0.1-0.2,0.2-0.4,0.4-0.5c0.1-0.2,0.3-0.4,0.5-0.5c0.2-0.2,0.4-0.4,0.5-0.6c0.2-0.2,0.3-0.4,0.4-0.7c0.1-0.2,0.1-0.5,0-0.7
				c-0.2-0.1-0.5-0.1-0.8,0.1c-0.3,0.2-0.6,0.3-0.8,0.4c-0.7,0.3-1.3,0.7-1.9,1.1c-0.6,0.5-1.2,0.9-1.8,1.3
				c-0.1,0.1-0.2,0.2-0.5,0.4c-0.2,0.2-0.4,0.4-0.7,0.6c-0.2,0.2-0.5,0.3-0.7,0.4c-0.2,0.1-0.4,0-0.5-0.3c-0.1-0.1,0-0.3,0-0.4
				c0.1-0.2,0.1-0.3,0.2-0.5c0.1-0.2,0.2-0.4,0.3-0.5c0.1-0.2,0.2-0.3,0.2-0.4c0-0.1,0.1-0.3,0.2-0.5s0.1-0.4,0.2-0.6
				c-0.5,0.2-1,0.4-1.4,0.7c-0.4,0.3-0.9,0.6-1.3,0.9c-0.4,0.3-0.8,0.7-1.2,1.1c-0.4,0.4-0.8,0.7-1.2,1.1c-0.1,0.1-0.2,0.2-0.4,0.3
				c-0.2,0.1-0.3,0.1-0.5,0c-0.2-0.1-0.3-0.2-0.4-0.3c0-0.1,0-0.3,0-0.4c0.1-0.1,0.1-0.3,0.3-0.4c0.1-0.1,0.2-0.2,0.3-0.3
				c0.6-0.9,1.1-1.8,1.4-2.8c-0.5,0.1-1,0.3-1.4,0.5c-0.5,0.2-0.9,0.4-1.3,0.6c-0.3,0.2-0.6,0.4-0.9,0.5c-0.3,0.2-0.6,0.4-0.9,0.6
				c-0.1,0.1-0.2,0.1-0.3,0.1c-0.1,0-0.2-0.1-0.3-0.2c-0.1-0.1-0.1-0.2-0.1-0.3C435.6,42.7,435.7,42.6,435.8,42.5z"/>
			<path class="st0" d="M456.5,41.3c0.4-0.2,0.8-0.5,1.3-0.8c0.4-0.3,0.9-0.5,1.3-0.7c0.3-0.5,0.7-1,1.2-1.4
				c0.5-0.4,1.1-0.6,1.7-0.8c0.3-0.1,0.7-0.1,1.1-0.1c0.4,0,0.8,0.2,1,0.5c0.2,0.2,0.2,0.4,0.2,0.6c-0.1,0.2-0.2,0.4-0.4,0.6
				c-0.2,0.2-0.4,0.4-0.6,0.5c-0.2,0.2-0.4,0.3-0.5,0.4c-0.4,0.3-0.8,0.5-1.3,0.6c-0.5,0.2-1,0.2-1.5,0.2l-0.1,0
				c0.1,0.5,0.3,0.9,0.7,1.1s0.7,0.4,1.2,0.5c0.4,0.1,0.9,0.1,1.4,0.1c0.5,0,0.9-0.1,1.3-0.2c0.5-0.1,1.1-0.3,1.6-0.5
				c0.5-0.2,1-0.4,1.5-0.7c0.2-0.1,0.5-0.3,0.7-0.4c0.2-0.1,0.5-0.2,0.7-0.4c0.2-0.1,0.3,0,0.5,0c0.2,0.1,0.2,0.2,0.1,0.4
				c-0.1,0.2-0.3,0.3-0.5,0.4c-0.2,0.1-0.4,0.2-0.5,0.2l-1.7,0.9c-1,0.5-2.1,0.9-3.1,1.2c-0.5,0.1-0.9,0.2-1.4,0.2
				c-0.5,0-0.9-0.1-1.3-0.2c-0.4-0.1-0.8-0.4-1.1-0.7c-0.3-0.3-0.6-0.7-0.8-1.2c-0.1-0.2-0.1-0.4-0.2-0.5c0-0.2,0-0.4,0-0.5
				c-0.2,0.1-0.5,0.3-0.7,0.4c-0.2,0.2-0.4,0.3-0.6,0.4c-0.1,0.1-0.3,0.1-0.4,0.3c-0.2,0.1-0.4,0.2-0.6,0c-0.1-0.1-0.2-0.2-0.2-0.4
				C456.3,41.4,456.4,41.3,456.5,41.3z M460,40.1c0.6-0.1,1.1-0.2,1.6-0.5c0.5-0.3,0.9-0.6,1.3-1c-0.3-0.1-0.6-0.1-1,0
				c-0.3,0.1-0.6,0.2-0.8,0.3c-0.3,0.2-0.5,0.3-0.7,0.6C460.2,39.6,460.1,39.9,460,40.1z"/>
		</g>
	</g>
</g>
<g>
	<g>
		<g>
			<path class="st0" d="M97.4,70.9c-4.4-3.3-11.8-5.7-17.3-5.7c0,0,0,0-0.1,0c-0.4,0-0.8,0-1.2,0c0,0,0,0,0,0c0,0,0,0,0,0
				c-0.2,0-0.3,0-0.5,0l0,0l0,0C71.9,66,66,69,60.3,71.9c-5.4,2.7-10.4,5.3-15.8,6.1l-2.4,0.4l-3,0.4c0,0,0,0,0,0
				c-0.2-0.1-0.5-0.2-0.7-0.4c-0.1,0-0.2-0.1-0.3-0.2c-0.2-0.1-0.3-0.2-0.5-0.3c-0.2-0.1-0.3-0.2-0.5-0.2c-0.1-0.1-0.2-0.1-0.3-0.2
				c-0.3-0.1-0.5-0.3-0.8-0.4c0,0,0,0-0.1,0c-7.4-3.6-15.2-6.4-23.6-6.9c0,0,0,0,0,0c-0.1,0-0.2,0-0.2,0c0.2,0.6,0.4,1.2,0.6,1.8
				c8,0.7,16.5,3.9,23.6,7.4c0.6,0.3,1.2,0.7,1.9,1.1c-3.2,0.4-6.4,1.2-9.5,2.1c-1.3,0.4-2.6,0.8-3.9,1.2c-0.2,0.1-0.4,0.1-0.6,0.2
				c-0.5,0.2-3.6,1.3-3.6,1.3c1.5,1.8,3.2,3.5,5,5c1.7,1,3.5,1.9,5.3,2.7c1.1,0.4,2.2,0.8,3.3,1.2c1.5,0.5,3,0.9,4.4,1.1
				c2.2,0.3,4.4,0.4,6.6,0.3c1.5-0.1,2.9-0.2,4.4-0.5c4.9-0.9,9.5-2.7,14-4.7c1.2-0.5,2.3-1.1,3.5-1.6c0,0,0.1,0,0.1-0.1
				c8-3.8,15.9-8,24.8-9c0.1,0,0.2,0,0.4,0c0.2,0,0.5,0,0.8,0c0.4-0.6,0.8-1.2,1.1-1.9c-0.1,0-0.1-0.1-0.2-0.1c0,0,0,0-0.1,0
				c-0.1,0-0.1,0-0.2,0c-0.2,0-0.5,0-0.7,0c-0.2,0-0.4,0-0.6,0.1c-0.4,0.1-0.9,0.1-1.6,0.2c-1.1,0.1-2.2,0.3-3.2,0.6
				c-0.9,0.2-1.8,0.4-2.6,0.7c-0.1,0-0.1,0-0.2,0c-0.8,0.2-1.7,0.5-2.5,0.8c-0.1,0-0.1,0-0.2,0.1c-1.7,0.6-3.3,1.2-5,1.9
				c-0.1,0-0.2,0.1-0.2,0.1c-0.8,0.3-1.6,0.7-2.4,1.1c0,0,0,0,0,0c-0.8,0.4-1.6,0.7-2.4,1.1c-0.1,0-0.1,0-0.2,0.1
				c-0.8,0.4-1.7,0.8-2.5,1.2c-0.8,0.4-1.7,0.8-2.5,1.2c-2.2-2.4-4.9-3.9-8.1-4.9c-5.3-1.4-11.2-1.7-16.8-1.5c0,0-0.1,0-0.1,0
				c-0.2-0.1-0.6-0.3-0.8-0.4c0,0,0,0,0,0c-0.2-0.1,0.1,0,0.1,0c0.8,0,2.3-0.2,3.2-0.3c0.4-0.1,0.6-0.1,0.6-0.1
				c11.6-1.7,21.4-11,33-12.4c0.1,0,0.3,0,0.4-0.1c0.5,0,1.1,0,1.6,0c0.1,0,0.3,0,0.4,0c0.3,0,0.6,0,1,0c0.4,0,0.9,0,1.3,0.1
				c0.3,0,0.6,0.1,1,0.1c0.4,0.1,0.8,0.1,1.2,0.2c0.3,0.1,0.6,0.1,0.9,0.2c0.4,0.1,0.8,0.2,1.2,0.3c0.3,0.1,0.6,0.2,0.9,0.3
				c0.4,0.1,0.8,0.3,1.2,0.4c0.3,0.1,0.6,0.2,0.9,0.3c0.4,0.2,0.8,0.3,1.2,0.5c0.3,0.1,0.5,0.2,0.8,0.4c0.4,0.2,0.9,0.5,1.3,0.7
				c0.2,0.1,0.4,0.2,0.6,0.4c0.6,0.4,1.3,0.8,1.9,1.2c0.2,0.1,0.4,0.3,0.6,0.4c0,0-0.1-0.1-0.1-0.1l0.1,0.1l0.2,0.1c0,0,0,0,0,0l0,0
				c-0.3,0.9-0.7,1.7-1.1,2.6C96.3,73.8,96.9,72.4,97.4,70.9z M41.4,82.3c0.2,0,0.4,0,0.7,0c0,0,0,0,0,0c5.4-0.2,11.1,0.1,16.3,1.4
				c2.6,0.8,4.9,2.1,6.8,4c-0.1,0-0.1,0.1-0.2,0.1c0,0,0,0,0,0c0,0,0,0,0,0C62,89.1,59,90.4,56,91.4c-0.4,0.1-0.7,0.3-1.1,0.4
				c0,0-0.1,0-0.1,0c-5.1,1.6-10.3,2.4-15.7,1.6c-5.3-0.8-11.1-3.8-15.5-7.1c0.6-0.2,1.2-0.4,1.8-0.6c1.3-0.4,2.7-0.8,4-1.2
				c-1.3,0.4-2.7,0.8-4,1.2c4.7-1.5,9.5-3,14.5-3.4C40.3,82.3,40.9,82.3,41.4,82.3z"/>
		</g>
		<g>
			<path class="st2" d="M24.8,83.9c1.3-0.4,2.6-0.8,3.9-1.2c3.1-0.9,6.3-1.7,9.5-2.1c-0.6-0.4-1.3-0.8-1.9-1.1
				c-7.1-3.6-15.7-6.7-23.6-7.4c1.9,4.9,4.6,9.4,7.9,13.4c0,0,3.1-1.1,3.6-1.3C24.4,84,24.6,84,24.8,83.9z"/>
		</g>
		<path class="st3" d="M93.3,79.6c-0.3,0-0.6,0-0.8,0c-0.1,0-0.2,0-0.4,0c-8.9,1-16.8,5.2-24.8,9c0,0-0.1,0-0.1,0.1
			c-1.2,0.5-2.3,1.1-3.5,1.6c-4.5,2-9.1,3.8-14,4.7c-1.5,0.3-2.9,0.4-4.4,0.5c-2.2,0.1-4.4,0.1-6.6-0.3c-1.5-0.2-2.9-0.6-4.4-1.1
			c-1.1-0.3-2.2-0.7-3.3-1.2c-1.8-0.7-3.6-1.6-5.3-2.7c0.2,0.2,0.4,0.3,0.6,0.5c0.4,0.3,0.8,0.6,1.1,0.9c0.4,0.3,0.8,0.6,1.1,0.9
			c0.5,0.3,1,0.7,1.5,1c1.4,1,2.9,1.8,4.5,2.6c0.5,0.2,1,0.5,1.5,0.7c0.3,0.1,0.6,0.3,0.9,0.4c0.5,0.2,0.9,0.4,1.4,0.6
			c0.3,0.1,0.6,0.2,0.9,0.3c0.6,0.2,1.2,0.4,1.8,0.6c0.3,0.1,0.6,0.2,0.8,0.3c0.6,0.2,1.1,0.3,1.7,0.5c0.2,0.1,0.4,0.1,0.7,0.2
			c0.7,0.2,1.4,0.3,2.1,0.4c0.3,0.1,0.5,0.1,0.8,0.1c0.7,0.1,1.3,0.2,2,0.3c0.1,0,0.3,0,0.4,0.1c0.8,0.1,1.5,0.2,2.3,0.2
			c0.2,0,0.5,0,0.7,0c0.8,0,1.6,0.1,2.4,0.1c0,0,0.1,0,0.1,0c0.4,0,0.8,0,1.2,0c0.5,0,0.9,0,1.4-0.1c0.2,0,0.3,0,0.5,0
			c0.5,0,1-0.1,1.4-0.1c0.1,0,0.3,0,0.4,0c0.5-0.1,1-0.1,1.6-0.2c0.1,0,0.2,0,0.3,0c0.6-0.1,1.1-0.2,1.7-0.3c0,0,0.1,0,0.1,0
			c2.5-0.5,4.9-1.2,7.2-2C80.1,94.8,88.1,88.1,93.3,79.6z"/>
		<path class="st4" d="M97.4,70.9c0.3-0.9,0.7-2.1,0.9-2.9c0.8-2.8,1.3-5.8,1.5-8.9c0.1-1,0.1-2,0.1-3.1c0-1.8-0.1-3.5-0.3-5.2
			c-0.2-1.7-0.5-3.4-0.9-5c-0.2-0.8-0.4-1.6-0.6-2.4c-0.7-2.4-1.6-4.7-2.7-6.9c-0.3-0.7-0.6-1.3-1-1.9c-0.7-1.3-1.4-2.5-2.3-3.7
			c-0.8-1.2-1.7-2.4-2.6-3.5c-0.9-1.1-1.9-2.2-2.9-3.2c-1-1-2.1-2-3.2-2.9c-1.1-0.9-2.3-1.8-3.5-2.6c-1.2-0.8-2.4-1.6-3.7-2.3
			C69.9,12.9,62.6,11,54.8,11C29.9,11,9.7,31.2,9.7,56.1c0,5,0.8,9.7,2.3,14.2c0,0,0,0,0,0c0,0,0,0,0,0c0.1,0,0.2,0,0.2,0
			c0,0,0,0,0,0c8.4,0.5,16.1,3.3,23.6,6.9c0,0,0,0,0.1,0c0.3,0.1,0.5,0.3,0.8,0.4c0.1,0.1,0.2,0.1,0.3,0.2c0.2,0.1,0.3,0.2,0.5,0.2
			c0.2,0.1,0.3,0.2,0.5,0.3c0.1,0.1,0.2,0.1,0.3,0.2c0.2,0.1,0.5,0.2,0.7,0.4c0,0,0,0,0,0l3-0.4c-0.3-0.2-0.7-0.4-0.7-0.4
			C34,73.4,29.1,65.3,29.1,56.1c0-14.2,11.5-25.7,25.7-25.7c14.2,0,25.7,11.5,25.7,25.7c0,3.1-0.6,6.4-1.6,9.2c0,0,0,0,0,0
			c0,0,0,0,0,0l0,0C85.6,65,92.1,67.5,97.4,70.9"/>
		<g>
			<g>
				<path class="st1" d="M96.6,72.5c-0.2-0.1-0.4-0.3-0.6-0.4c-0.6-0.4-1.2-0.8-1.9-1.2c-0.2-0.1-0.4-0.2-0.6-0.4
					c-0.4-0.2-0.9-0.5-1.3-0.7c-0.3-0.1-0.5-0.2-0.8-0.4c-0.4-0.2-0.8-0.4-1.2-0.5c-0.3-0.1-0.6-0.2-0.9-0.3
					c-0.4-0.1-0.8-0.3-1.2-0.4c-0.3-0.1-0.6-0.2-0.9-0.3c-0.4-0.1-0.8-0.2-1.2-0.3c-0.3-0.1-0.6-0.1-0.9-0.2
					c-0.4-0.1-0.8-0.1-1.2-0.2c-0.3,0-0.6-0.1-1-0.1c-0.4,0-0.8-0.1-1.3-0.1c-0.3,0-0.6,0-1,0c-0.7,0-1.3,0-2,0
					c-0.1,0-0.3,0-0.4,0.1c0,0,0,0,0,0c0,0,0,0,0,0c-1.3,0.2-2.6,0.4-3.9,0.8c-0.8,0.2-1.6,0.5-2.4,0.8c0,0,0,0,0,0
					c-0.6,0.2-1.2,0.4-1.8,0.7c-0.7,0.3-1.4,0.6-2.1,0.9c-0.2,0.1-0.4,0.2-0.7,0.3c-0.6,0.3-1.2,0.5-1.7,0.8c-0.5,0.2-1,0.5-1.6,0.8
					c-0.2,0.1-0.4,0.2-0.6,0.3c-0.3,0.2-0.6,0.3-1,0.5c-0.9,0.5-1.8,0.9-2.8,1.4c-0.4,0.2-0.8,0.4-1.2,0.6c-4.3,2.1-8.6,4-13.2,4.7
					c0,0-0.3,0-0.6,0.1c-0.9,0.1-2.4,0.3-3.2,0.3l0.1,0c0.1,0,0.2,0,0.3,0c0.1,0,1.5-0.1,2.4-0.2c0.2,0,0.4,0,0.7-0.1
					c0,0-0.2,0-0.7,0.1c-0.8,0.1-1.6,0.2-2.4,0.2c0,0,0,0,0,0c0,0,0.1,0,0.1,0c-0.3,0-0.5,0-0.5,0c0,0,0,0-0.1,0c0,0,0,0,0,0
					c0.2,0.1,0.6,0.3,0.8,0.4c0,0,0.1,0,0.1,0c5.6-0.2,11.5,0.1,16.8,1.5c3.1,1,5.9,2.5,8.1,4.9c0.8-0.4,1.7-0.8,2.5-1.2
					c0.8-0.4,1.7-0.8,2.5-1.2c0.1,0,0.1,0,0.2-0.1c0.8-0.4,1.6-0.8,2.4-1.1c0,0,0,0,0,0c0.8-0.4,1.6-0.7,2.4-1.1
					c0.1,0,0.2-0.1,0.2-0.1c1.6-0.7,3.3-1.3,5-1.9c0.1,0,0.1,0,0.2-0.1c0.8-0.3,1.7-0.5,2.5-0.8c0.1,0,0.1,0,0.2,0
					c2.4-0.7,4.9-1.2,7.5-1.4c0,0,0,0,0,0c0.2,0,0.4,0,0.6-0.1c0.2,0,0.5,0,0.7,0c0,0,0,0,0,0c0,0,0.1,0,0.1,0c0,0,0,0,0.1,0
					c0.1,0,0.1,0,0.2,0.1c0.5-0.8,0.9-1.7,1.3-2.5c0.4-0.9,0.8-1.7,1.1-2.6C96.7,72.6,96.6,72.5,96.6,72.5z M51.2,78
					c-1.4,0.5-2.8,1-4.3,1.3C48.3,79,49.8,78.5,51.2,78z"/>
			</g>
		</g>
		<path class="st5" d="M58.4,83.7c-5.1-1.4-10.9-1.7-16.3-1.4c0,0-0.4,0-0.7,0c-0.5,0-1.1,0.1-1.6,0.1c-5,0.4-9.8,1.9-14.5,3.4
			c1.3-0.4,1.3-0.4,0,0c-0.6,0.2-1.2,0.4-1.8,0.6c4.4,3.4,10.3,6.3,15.5,7.1c5.4,0.8,10.6,0,15.7-1.6c0,0,0.1,0,0.1,0
			c0.4-0.1,0.7-0.2,1.1-0.4c3-1.1,6-2.3,8.9-3.7c0,0,0,0,0.1,0c0,0,0,0,0,0c0,0,0,0,0,0c0.1,0,0.1-0.1,0.2-0.1
			C63.3,85.7,61,84.5,58.4,83.7z"/>
	</g>
</g>
</svg>
