<?xml version="1.0" encoding="utf-8"?>
<!-- Generator: Adobe Illustrator 21.0.0, SVG Export Plug-In . SVG Version: 6.00 Build 0)  -->
<svg version="1.1" id="Layer_1" xmlns="http://www.w3.org/2000/svg" xmlns:xlink="http://www.w3.org/1999/xlink" x="0px" y="0px"
	 viewBox="0 0 479.6 109.6" style="enable-background:new 0 0 479.6 109.6;" xml:space="preserve">
<style type="text/css">
	.st0{fill:#272525;}
	.st1{font-family:'NoteraPersonalUseOnly';}
	.st2{font-size:16.698px;}
	.st3{font-size:19.0374px;}
	.st4{font-family:'CenturyGothic';}
	.st5{font-size:3.1628px;}
	.st6{fill:#7AD2C4;}
	.st7{fill:#FFFFFF;}
	.st8{fill:#A3E1D5;}
	.st9{fill:#D8F2EC;}
	.st10{fill:#DE8F38;}
	.st11{fill:#BDEAE1;}
</style>
<g>
	<g>
		<path class="st0" d="M122.2,28.3c3.4,0,6.3,1.1,8.6,3.4c2.3,2.3,3.4,5.1,3.4,8.4c0,3.3-1.1,6.1-3.4,8.4c-2.3,2.3-5.1,3.4-8.4,3.4
			c-3.3,0-6.2-1.1-8.5-3.4c-2.3-2.3-3.4-5.1-3.4-8.3c0-2.2,0.5-4.2,1.6-6c1-1.8,2.5-3.3,4.3-4.3C118.2,28.8,120.1,28.3,122.2,28.3z
			 M122.3,30.5c-1.7,0-3.2,0.4-4.7,1.3c-1.5,0.9-2.7,2-3.5,3.5c-0.8,1.5-1.3,3.1-1.3,4.9c0,2.7,0.9,4.9,2.8,6.8
			c1.9,1.8,4.1,2.8,6.7,2.8c1.7,0,3.4-0.4,4.9-1.3c1.5-0.8,2.6-2,3.5-3.5c0.8-1.5,1.3-3.1,1.3-4.9c0-1.8-0.4-3.4-1.3-4.9
			c-0.8-1.4-2-2.6-3.5-3.5C125.6,30.9,124,30.5,122.3,30.5z"/>
		<path class="st0" d="M144.5,28.9h4.5c2.5,0,4.2,0.1,5.1,0.3c1.3,0.3,2.4,1,3.3,2c0.8,1,1.3,2.2,1.3,3.7c0,1.2-0.3,2.3-0.9,3.2
			s-1.4,1.6-2.5,2.1c-1.1,0.5-2.6,0.7-4.4,0.7l8.1,10.5h-2.8l-8.1-10.5h-1.3v10.5h-2.3V28.9z M146.8,31.1v7.7l3.9,0
			c1.5,0,2.6-0.1,3.3-0.4s1.3-0.7,1.7-1.4c0.4-0.6,0.6-1.3,0.6-2.1c0-0.8-0.2-1.4-0.6-2.1c-0.4-0.6-0.9-1.1-1.6-1.3
			c-0.7-0.3-1.8-0.4-3.3-0.4H146.8z"/>
		<path class="st0" d="M178.3,28.9l10.5,22.5h-2.4l-3.5-7.4h-9.7l-3.5,7.4h-2.5l10.6-22.5H178.3z M178,33.6l-3.9,8.2h7.7L178,33.6z"
			/>
		<path class="st0" d="M198,51.4V28.9h0.5l15,17.3V28.9h2.2v22.5h-0.5l-14.9-17.1v17.1H198z"/>
		<path class="st0" d="M248.6,32.6l-1.7,1.7c-1.3-1.2-2.6-2.2-4.1-2.8c-1.5-0.6-3-1-4.4-1c-1.8,0-3.4,0.4-5,1.3
			c-1.6,0.9-2.8,2-3.7,3.5c-0.9,1.5-1.3,3.1-1.3,4.7c0,1.7,0.5,3.3,1.4,4.8c0.9,1.5,2.2,2.7,3.8,3.6c1.6,0.9,3.4,1.3,5.3,1.3
			c2.3,0,4.3-0.7,5.9-2c1.6-1.3,2.6-3,2.8-5.1h-7.2v-2.2h9.7c0,3.5-1.1,6.2-3.1,8.3S242,52,238.6,52c-4.2,0-7.5-1.4-9.9-4.3
			c-1.9-2.2-2.8-4.7-2.8-7.6c0-2.1,0.5-4.1,1.6-6c1.1-1.8,2.5-3.3,4.4-4.3c1.9-1,4-1.6,6.3-1.6c1.9,0,3.7,0.3,5.4,1
			C245.3,30,247,31.1,248.6,32.6z"/>
		<path class="st0" d="M259.8,28.9h12.9v2.2h-10.7v7.1h10.6v2.2h-10.6v8.9h10.6v2.2h-12.8V28.9z"/>
	</g>
	<g>
		<path class="st0" d="M134.1,64.7l-1.8,1.4c-1-1.3-2.2-2.2-3.5-2.9c-1.4-0.7-2.9-1-4.5-1c-1.8,0-3.5,0.4-5,1.3
			c-1.5,0.9-2.7,2-3.6,3.5c-0.8,1.5-1.3,3.1-1.3,4.9c0,2.7,0.9,5,2.8,6.9c1.9,1.8,4.3,2.8,7.1,2.8c3.2,0,5.8-1.2,7.9-3.7l1.8,1.3
			c-1.1,1.4-2.5,2.5-4.2,3.3c-1.7,0.8-3.6,1.2-5.6,1.2c-3.9,0-7.1-1.3-9.3-3.9c-1.9-2.2-2.9-4.9-2.9-8c0-3.3,1.2-6.1,3.5-8.3
			c2.3-2.3,5.2-3.4,8.7-3.4c2.1,0,4,0.4,5.7,1.2C131.6,62,133,63.2,134.1,64.7z"/>
		<path class="st0" d="M159.4,60c3.4,0,6.3,1.1,8.6,3.4c2.3,2.3,3.4,5.1,3.4,8.4c0,3.3-1.1,6.1-3.4,8.4c-2.3,2.3-5.1,3.4-8.4,3.4
			c-3.3,0-6.2-1.1-8.5-3.4c-2.3-2.3-3.4-5.1-3.4-8.3c0-2.2,0.5-4.2,1.6-6c1-1.8,2.5-3.3,4.3-4.3C155.3,60.5,157.3,60,159.4,60z
			 M159.5,62.2c-1.7,0-3.2,0.4-4.7,1.3c-1.5,0.9-2.7,2-3.5,3.5c-0.8,1.5-1.3,3.1-1.3,4.9c0,2.7,0.9,4.9,2.8,6.8s4.1,2.8,6.7,2.8
			c1.7,0,3.4-0.4,4.9-1.3c1.5-0.8,2.6-2,3.5-3.5c0.8-1.5,1.3-3.1,1.3-4.9c0-1.8-0.4-3.4-1.3-4.9c-0.8-1.4-2-2.6-3.5-3.5
			C162.8,62.6,161.2,62.2,159.5,62.2z"/>
		<path class="st0" d="M186,60.5h2.3v20.4h8.7v2.2H186V60.5z"/>
		<path class="st0" d="M221.2,60c3.4,0,6.3,1.1,8.6,3.4c2.3,2.3,3.4,5.1,3.4,8.4c0,3.3-1.1,6.1-3.4,8.4c-2.3,2.3-5.1,3.4-8.4,3.4
			c-3.3,0-6.2-1.1-8.5-3.4c-2.3-2.3-3.4-5.1-3.4-8.3c0-2.2,0.5-4.2,1.6-6c1-1.8,2.5-3.3,4.3-4.3C217.2,60.5,219.1,60,221.2,60z
			 M221.3,62.2c-1.7,0-3.2,0.4-4.7,1.3c-1.5,0.9-2.7,2-3.5,3.5c-0.8,1.5-1.3,3.1-1.3,4.9c0,2.7,0.9,4.9,2.8,6.8s4.1,2.8,6.7,2.8
			c1.7,0,3.4-0.4,4.9-1.3c1.5-0.8,2.6-2,3.5-3.5c0.8-1.5,1.3-3.1,1.3-4.9c0-1.8-0.4-3.4-1.3-4.9c-0.8-1.4-2-2.6-3.5-3.5
			C224.6,62.6,223,62.2,221.3,62.2z"/>
		<path class="st0" d="M246.8,83.1l3.2-22.5h0.4l9.2,18.5l9.1-18.5h0.4l3.2,22.5H270l-2.2-16.1l-8,16.1h-0.6l-8.1-16.2L249,83.1
			H246.8z"/>
	</g>
</g>
<g>
	<g>
		<text transform="matrix(1 0 0 1 363.0216 70.4115)" class="st0 st1 st2">Mallorca</text>
		<text transform="matrix(1 0 0 1 313.2697 73.1019)" class="st0 st1 st3">by</text>
		<text transform="matrix(1 0 0 1 396.42 79.8206)" class="st0 st4 st5">house rent</text>
		<path class="st6" d="M449.2,80c-10.4-2.3-21.3-3.8-21.3-3.8l-3.2-0.4l-13-0.9l-3.3-0.1l-3.3-0.1l-3.4-0.1l-3.3,0l-3.3,0l-3.3,0
			l-3.3,0l-3.3,0.1l-3.3,0l-2.2,0l-2.2,0l-2.4,0l-2.3,0l-2.5,0l-2.4,0l-2.4-0.1l-2.4-0.1l-2.4-0.1l-2.3-0.2l-2.3-0.2
			c0,0-9.5-1.5-12.5-4.5l-3.8,2.8l0.1-1.1l0-1.5l-0.8,0c0,0.1-0.1,1.9-0.4,2.2c-0.6,0.6-2.4,1-2.7,1l-1.3,0.1l-1.4,0
			c0.9-0.1,4.5-0.9,4.9-1.3c0.3-0.3,0.3-1.9,0.2-2.5l2.2,0l0,2l2.8-2.2l0.2-0.1l0.2,0.1c3.4,2.7,9.6,3.9,12.8,4.3
			c3.2,0.4,4.6,0.4,4.6,0.4l2.4,0.1l2.3,0l2.3,0l2.3,0l2.2-0.1l2.3-0.1l2.3-0.1l2.2-0.1l2.2-0.1l2.3-0.1l2.2-0.1l2.2-0.1l2.2-0.1
			l2.9-0.1l2.7-0.1l2.9,0l2.9,0l2.8,0.1l2.9,0.1l2.8,0.2l2.9,0.2l2.8,0.2l2.7,0.3l2.8,0.3l2.6,0.3l2.6,0.4l2.6,0.4l2.4,0.5l2.2,0.5
			C434.2,76.2,450.7,80.3,449.2,80z"/>
	</g>
	<g>
		<g>
			<path class="st0" d="M292.5,50c1-0.5,2-1.1,2.9-1.8c0.9-0.7,1.8-1.4,2.7-2.1c0.4-0.9,0.8-1.7,1.2-2.6c0.4-0.9,0.8-1.8,1.3-2.6
				c0.2-0.4,0.4-0.8,0.6-1.2c0.2-0.4,0.5-0.8,0.8-1.2c0.3-0.4,0.6-0.7,1-1c0.4-0.3,0.8-0.4,1.2-0.4c0.5,0,0.8,0.1,0.9,0.3
				c0.1,0.3,0.1,0.5,0.1,0.9c-0.1,0.3-0.2,0.7-0.4,1c-0.2,0.4-0.4,0.6-0.5,0.8c-0.5,0.9-1.1,1.8-1.8,2.6c-0.7,0.8-1.4,1.6-2.1,2.3
				c-0.2,0.3-0.5,0.5-0.8,0.8c-0.3,0.2-0.5,0.5-0.8,0.7l-1.2,2.7c0,0.7,0.2,1.1,0.5,1.4c0.3,0.2,0.7,0.3,1.3,0.2
				c0.3-0.1,0.6-0.2,0.9-0.3c0.3-0.1,0.6-0.3,0.9-0.4c0.2-0.1,0.4-0.3,0.7-0.5c0.3-0.2,0.5-0.3,0.8-0.3c0.2,0,0.4,0.1,0.4,0.3
				c0.1,0.2,0,0.4-0.2,0.5l-1.6,0.9c-0.5,0.2-1,0.4-1.6,0.6c-0.6,0.2-1.1,0.3-1.7,0.1c-0.5-0.1-0.8-0.4-1.1-0.9
				c-0.4,0.9-0.8,1.9-1.3,2.8c-0.5,0.9-0.9,1.8-1.4,2.7c-0.1,0.1-0.2,0.3-0.4,0.7c-0.2,0.3-0.4,0.6-0.6,0.9
				c-0.2,0.3-0.4,0.5-0.7,0.6c-0.2,0.1-0.4,0-0.6-0.3c-0.1-0.2-0.2-0.4-0.2-0.6c0-0.2,0-0.5,0-0.7s0.1-0.5,0.1-0.7
				c0.1-0.2,0.1-0.4,0.1-0.6c0.1-0.5,0.4-1.1,0.7-1.7c0.3-0.6,0.7-1.2,1.1-1.9c0.4-0.6,0.9-1.2,1.4-1.7c0.5-0.5,1.1-1,1.6-1.3
				c0.1-0.2,0.2-0.5,0.3-0.7c0.1-0.2,0.2-0.4,0.3-0.6l-1.4,1.1c-0.4,0.3-0.8,0.6-1.2,0.8c-0.4,0.3-0.8,0.6-1.3,0.8
				c-0.1,0.1-0.3,0.2-0.5,0.3c-0.2,0.1-0.3,0.1-0.5,0c-0.1-0.1-0.2-0.2-0.2-0.4C292.3,50.2,292.3,50.1,292.5,50z M292.6,56.4
				c0.6-0.8,1.2-1.6,1.7-2.6c0.5-0.9,1-1.9,1.5-2.8c-0.8,0.7-1.6,1.5-2.2,2.4C293,54.5,292.7,55.5,292.6,56.4z M302.1,41.7
				c0.5-0.6,0.9-1.3,1.2-1.9c0.1-0.2,0.2-0.4,0.3-0.6c0.1-0.3,0.2-0.5,0.2-0.7c-0.3,0.1-0.5,0.3-0.7,0.5c-0.2,0.2-0.4,0.4-0.6,0.6
				c-0.4,0.5-0.8,1-1.1,1.5c-0.3,0.5-0.6,1.1-0.9,1.6c-0.2,0.3-0.3,0.7-0.5,1c-0.2,0.3-0.3,0.7-0.5,1c0.5-0.5,0.9-1,1.4-1.4
				C301.3,42.8,301.7,42.2,302.1,41.7z"/>
			<path class="st0" d="M302.1,49.5c0.4-0.2,0.8-0.5,1.3-0.8c0.4-0.3,0.9-0.5,1.3-0.7c0.3-0.6,0.7-1,1.2-1.4
				c0.5-0.4,1.1-0.6,1.7-0.8c0.3-0.1,0.7-0.1,1.1-0.1c0.4,0,0.8,0.2,1,0.5c0.2,0.2,0.2,0.4,0.2,0.6c-0.1,0.2-0.2,0.4-0.4,0.6
				c-0.2,0.2-0.4,0.4-0.6,0.5c-0.2,0.2-0.4,0.3-0.5,0.4c-0.4,0.3-0.9,0.5-1.4,0.7c-0.5,0.2-1,0.2-1.5,0.2l-0.1,0
				c0.1,0.5,0.4,0.9,0.7,1.2c0.3,0.3,0.7,0.4,1.2,0.5c0.5,0.1,0.9,0.1,1.4,0.1c0.5-0.1,0.9-0.1,1.3-0.2c0.6-0.1,1.1-0.3,1.6-0.5
				c0.5-0.2,1-0.4,1.5-0.7c0.2-0.1,0.5-0.3,0.7-0.4c0.2-0.1,0.5-0.2,0.7-0.4c0.2-0.1,0.3,0,0.5,0c0.2,0.1,0.2,0.2,0.1,0.5
				c-0.1,0.2-0.3,0.3-0.5,0.4c-0.2,0.1-0.4,0.2-0.5,0.2l-1.7,0.9c-1.1,0.5-2.1,0.9-3.1,1.2c-0.5,0.1-0.9,0.2-1.4,0.2
				c-0.5,0-0.9-0.1-1.3-0.2c-0.4-0.2-0.8-0.4-1.1-0.7c-0.3-0.3-0.6-0.7-0.8-1.2c-0.1-0.2-0.1-0.4-0.2-0.6c0-0.2,0-0.4,0-0.5
				c-0.3,0.1-0.5,0.3-0.7,0.4c-0.2,0.2-0.4,0.3-0.6,0.4c-0.1,0.1-0.3,0.1-0.4,0.3c-0.2,0.1-0.4,0.2-0.6,0c-0.1-0.1-0.2-0.2-0.2-0.4
				C301.9,49.6,302,49.5,302.1,49.5z M305.6,48.3c0.6-0.1,1.1-0.2,1.6-0.5c0.5-0.3,1-0.6,1.3-1.1c-0.3-0.1-0.7-0.1-1,0
				c-0.3,0.1-0.6,0.2-0.9,0.3c-0.3,0.2-0.5,0.4-0.7,0.6C305.9,47.8,305.7,48,305.6,48.3z"/>
			<path class="st0" d="M314.6,48.8c0.4-0.2,0.8-0.5,1.3-0.8c0.4-0.3,0.9-0.5,1.3-0.7c0.3-0.6,0.7-1,1.2-1.4
				c0.5-0.4,1.1-0.6,1.7-0.8c0.3-0.1,0.7-0.1,1.1-0.1c0.4,0,0.8,0.2,1,0.5c0.2,0.2,0.2,0.4,0.2,0.6c-0.1,0.2-0.2,0.4-0.4,0.6
				c-0.2,0.2-0.4,0.4-0.6,0.5c-0.2,0.2-0.4,0.3-0.5,0.4c-0.4,0.3-0.9,0.5-1.4,0.7c-0.5,0.2-1,0.2-1.5,0.2l-0.1,0
				c0.1,0.5,0.4,0.9,0.7,1.2c0.3,0.3,0.7,0.4,1.2,0.5c0.5,0.1,0.9,0.1,1.4,0.1c0.5-0.1,0.9-0.1,1.3-0.2c0.6-0.1,1.1-0.3,1.6-0.5
				c0.5-0.2,1-0.4,1.5-0.7c0.2-0.1,0.5-0.3,0.7-0.4c0.2-0.1,0.5-0.2,0.7-0.4c0.2-0.1,0.3,0,0.5,0c0.2,0.1,0.2,0.2,0.1,0.5
				c-0.1,0.2-0.3,0.3-0.5,0.4c-0.2,0.1-0.4,0.2-0.5,0.2l-1.7,0.9c-1.1,0.5-2.1,0.9-3.1,1.2c-0.5,0.1-0.9,0.2-1.4,0.2
				c-0.5,0-0.9-0.1-1.3-0.2c-0.4-0.2-0.8-0.4-1.1-0.7c-0.3-0.3-0.6-0.7-0.8-1.2c-0.1-0.2-0.1-0.4-0.2-0.6c0-0.2,0-0.4,0-0.5
				c-0.3,0.1-0.5,0.3-0.7,0.4c-0.2,0.2-0.4,0.3-0.6,0.4c-0.1,0.1-0.3,0.1-0.4,0.3c-0.2,0.1-0.4,0.2-0.6,0c-0.1-0.1-0.2-0.2-0.2-0.4
				C314.4,48.9,314.4,48.8,314.6,48.8z M318.1,47.6c0.6-0.1,1.1-0.2,1.6-0.5c0.5-0.3,1-0.6,1.3-1.1c-0.3-0.1-0.7-0.1-1,0
				c-0.3,0.1-0.6,0.2-0.9,0.3c-0.3,0.2-0.5,0.4-0.7,0.6C318.3,47.1,318.2,47.3,318.1,47.6z"/>
			<path class="st0" d="M326.9,48c0.7-0.4,1.4-0.8,2-1.2c0.7-0.4,1.3-0.9,2-1.4c0.3-0.7,0.6-1.3,1-2c0.4-0.6,0.7-1.2,1.1-1.9
				c0.4-0.6,0.7-1.1,1.1-1.7c0.4-0.6,0.7-1.1,1.1-1.7c0.3-0.5,0.7-1,1.1-1.5c0.4-0.5,0.8-0.9,1.4-1.3c0.2-0.2,0.6-0.3,0.9-0.4
				c0.4-0.1,0.6,0.1,0.8,0.5c0.1,0.3,0.1,0.5,0.1,0.8c-0.1,0.3-0.2,0.5-0.3,0.8c-0.1,0.3-0.3,0.5-0.5,0.7c-0.2,0.2-0.3,0.4-0.4,0.6
				c-0.9,1.4-1.8,2.7-2.9,3.9s-2.3,2.4-3.5,3.4c-0.1,0.3-0.2,0.6-0.4,0.9c-0.1,0.3-0.2,0.7-0.3,1c-0.1,0.4-0.2,0.7-0.2,1
				c0,0.3,0,0.7,0.1,1c0.3-0.1,0.5-0.1,0.7-0.1c0.2,0,0.4-0.1,0.5-0.1c0.2,0,0.3,0,0.3-0.1c0.7-0.2,1.4-0.4,2-0.7
				c0.7-0.3,1.3-0.6,2-0.9c0.2-0.1,0.4-0.2,0.6-0.3c0.2-0.2,0.5-0.2,0.7-0.1c0.3,0.2,0.3,0.3,0.1,0.5c-0.2,0.2-0.3,0.3-0.5,0.4
				l-4,1.7c-0.4,0.2-0.8,0.3-1.1,0.5c-0.4,0.2-0.7,0.3-1.1,0.3c-0.3,0.1-0.6,0-0.8-0.1s-0.4-0.3-0.5-0.6c-0.1-0.2-0.1-0.5-0.1-0.8
				c0-0.3,0-0.6,0.1-0.8c0.1-0.6,0.3-1.1,0.5-1.7c-0.9,0.7-1.9,1.3-2.9,1.9c-0.2,0.1-0.4,0-0.6-0.2C326.6,48.4,326.7,48.2,326.9,48z
				 M333.8,42.8c1-1.1,2-2.3,2.8-3.5c0.4-0.5,0.8-1.1,1.1-1.7c0-0.1,0.1-0.3,0.2-0.5c0.1-0.2,0.2-0.4,0.2-0.6
				c-0.3,0.2-0.6,0.4-0.9,0.7c-0.3,0.3-0.5,0.5-0.7,0.7c-0.5,0.6-1,1.2-1.4,1.8c-0.4,0.6-0.9,1.3-1.3,1.9c-0.2,0.4-0.5,0.8-0.7,1.1
				c-0.2,0.4-0.4,0.8-0.6,1.1c0.2-0.2,0.4-0.4,0.6-0.6C333.4,43.2,333.6,43,333.8,42.8z"/>
			<path class="st0" d="M347.5,46.9c0.7-0.4,1.4-0.8,2-1.2c0.7-0.4,1.3-0.9,2-1.4c0.3-0.7,0.6-1.3,1-2c0.4-0.6,0.7-1.2,1.1-1.9
				c0.4-0.6,0.7-1.1,1.1-1.7c0.4-0.6,0.7-1.1,1.1-1.7c0.3-0.5,0.7-1,1.1-1.5c0.4-0.5,0.8-0.9,1.4-1.3c0.2-0.2,0.6-0.3,0.9-0.4
				c0.4-0.1,0.6,0.1,0.8,0.5c0.1,0.3,0.1,0.5,0.1,0.8c-0.1,0.3-0.2,0.5-0.3,0.8c-0.1,0.3-0.3,0.5-0.5,0.7c-0.2,0.2-0.3,0.4-0.4,0.6
				c-0.9,1.4-1.8,2.7-2.9,3.9c-1.1,1.2-2.3,2.4-3.5,3.4c-0.1,0.3-0.2,0.6-0.4,0.9c-0.1,0.3-0.2,0.7-0.3,1c-0.1,0.4-0.2,0.7-0.2,1
				c0,0.3,0,0.7,0.1,1c0.3-0.1,0.5-0.1,0.7-0.1c0.2,0,0.4-0.1,0.5-0.1c0.2,0,0.3,0,0.3-0.1c0.7-0.2,1.4-0.4,2-0.7
				c0.7-0.3,1.3-0.6,2-0.9c0.2-0.1,0.4-0.2,0.6-0.3c0.2-0.2,0.5-0.2,0.7-0.1c0.3,0.2,0.3,0.3,0.1,0.5c-0.2,0.2-0.3,0.3-0.5,0.4
				l-4,1.7c-0.4,0.2-0.8,0.3-1.1,0.5c-0.4,0.2-0.7,0.3-1.1,0.3c-0.3,0.1-0.6,0-0.8-0.1s-0.4-0.3-0.5-0.6c-0.1-0.2-0.1-0.5-0.1-0.8
				c0-0.3,0-0.6,0.1-0.8c0.1-0.6,0.3-1.1,0.5-1.7c-0.9,0.7-1.9,1.3-2.9,1.9c-0.2,0.1-0.4,0-0.6-0.2C347.2,47.2,347.2,47,347.5,46.9z
				 M354.4,41.7c1-1.1,2-2.3,2.8-3.5c0.4-0.5,0.8-1.1,1.1-1.7c0-0.1,0.1-0.3,0.2-0.5c0.1-0.2,0.2-0.4,0.2-0.6
				c-0.3,0.2-0.6,0.4-0.9,0.7c-0.3,0.3-0.5,0.5-0.7,0.7c-0.5,0.6-1,1.2-1.4,1.8c-0.4,0.6-0.9,1.3-1.3,1.9c-0.2,0.4-0.5,0.8-0.7,1.1
				c-0.2,0.4-0.4,0.8-0.6,1.1c0.2-0.2,0.4-0.4,0.6-0.6C353.9,42.1,354.2,41.8,354.4,41.7z"/>
			<path class="st0" d="M361.2,44.4c0.1-0.1,0.3-0.2,0.6-0.3c0.3-0.2,0.7-0.3,1-0.4c0.3-0.1,0.6-0.1,0.8-0.1c0.2,0,0.3,0.3,0.3,0.6
				c0,0.2-0.1,0.4-0.3,0.6c-0.1,0.2-0.2,0.4-0.3,0.6c-0.1,0.3-0.2,0.7-0.3,1.1c-0.1,0.5,0,0.8,0.2,1.1c0.4,0,0.8,0,1.3-0.2
				c0.5-0.2,0.9-0.3,1.3-0.5c0.1-0.1,0.3-0.2,0.6-0.4c0.3-0.2,0.6-0.4,1-0.6c0.4-0.2,0.7-0.3,1-0.4c0.3-0.1,0.5-0.1,0.6,0.1
				c0.1,0.2,0.1,0.3-0.1,0.5c-0.2,0.2-0.5,0.4-0.8,0.6c-0.3,0.2-0.6,0.3-0.9,0.5c-0.3,0.1-0.5,0.2-0.6,0.3c-0.5,0.3-1,0.6-1.5,0.8
				c-0.5,0.3-1,0.5-1.6,0.6c-0.5,0.1-0.8,0-1-0.3c-0.2-0.3-0.3-0.6-0.3-1.1c0-0.4,0-0.9,0.1-1.4c0.1-0.5,0.2-1,0.3-1.4
				c-0.5,0.2-1,0.5-1.5,0.7s-1,0.4-1.5,0.7c-0.4,0.2-0.8,0.4-1.2,0.7c-0.3,0.1-0.5,0-0.6-0.2c-0.2-0.2-0.1-0.4,0.2-0.5L361.2,44.4z
				 M366.3,37.1c-0.1,0.2-0.2,0.4-0.4,0.6c-0.2,0.2-0.5,0.2-0.7,0c-0.3-0.2-0.4-0.4-0.3-0.7c0.1-0.3,0.3-0.6,0.5-0.8
				C365.6,36,366.6,36.3,366.3,37.1"/>
			<path class="st0" d="M368.4,45.7c1.3-0.7,2.5-1.5,3.6-2.5c1.2-0.9,2.3-1.9,3.3-2.8l0.6-0.6c0.3-0.7,0.6-1.4,1-2.1
				c0.3-0.7,0.7-1.4,1.1-2c0.3-0.4,0.5-0.8,0.9-1.2c0.3-0.4,0.7-0.7,1.2-1c0.1-0.1,0.3-0.1,0.5-0.2c0.2,0,0.4,0,0.5,0
				c0.2,0,0.3,0.1,0.4,0.2c0.1,0.1,0.2,0.3,0.2,0.5c0,0.2-0.1,0.4-0.2,0.6c-0.1,0.2-0.2,0.4-0.4,0.6c-0.1,0.2-0.3,0.4-0.4,0.6
				c-0.2,0.2-0.3,0.4-0.4,0.5c-0.4,0.4-0.8,0.8-1.1,1.3c-0.4,0.4-0.8,0.8-1.2,1.3c-0.2,0.2-0.5,0.5-0.7,0.8
				c-0.2,0.3-0.5,0.5-0.7,0.7l-1.9,4.3c0.2-0.2,0.4-0.4,0.7-0.5c0.2-0.2,0.5-0.3,0.7-0.5c0.3-0.2,0.6-0.4,1-0.7s0.8-0.5,1.2-0.7
				c0.4-0.2,0.8-0.3,1.3-0.4c0.4-0.1,0.8,0,1.2,0.2c0.2,0.1,0.4,0.2,0.4,0.4c0.1,0.2,0.1,0.3,0,0.5c0,0.2-0.1,0.4-0.2,0.5
				c-0.1,0.2-0.2,0.3-0.4,0.5c-0.6,0.6-1.4,1-2.2,1.4c-0.8,0.3-1.7,0.5-2.6,0.5c0.4,0.4,0.9,0.8,1.5,1.1c0.6,0.3,1.1,0.3,1.8,0.2
				c0.8-0.2,1.6-0.4,2.3-0.7s1.5-0.7,2.2-1.2c0.1-0.1,0.3-0.2,0.4-0.3c0.2-0.1,0.4-0.2,0.6-0.1c0.1,0.1,0.2,0.2,0.2,0.3
				c0,0.2,0,0.3-0.2,0.4c-0.1,0.1-0.2,0.1-0.3,0.2c-0.1,0-0.2,0.1-0.3,0.1c-0.3,0.2-0.6,0.4-1,0.6c-0.3,0.2-0.6,0.4-1,0.5
				c-0.5,0.3-1,0.6-1.5,0.8c-0.5,0.3-1,0.4-1.5,0.5c-0.5,0.1-1,0.1-1.5,0c-0.5-0.1-1-0.4-1.6-0.8c-0.3-0.2-0.5-0.5-0.8-0.7
				c-0.2-0.3-0.5-0.5-0.7-0.8c-0.2,0.2-0.4,0.5-0.6,0.7c-0.2,0.2-0.4,0.5-0.6,0.7c-0.1,0.1-0.1,0.2-0.2,0.3
				c-0.1,0.1-0.2,0.2-0.3,0.3c-0.2,0.2-0.4,0.3-0.6,0.4c-0.2,0.1-0.4-0.1-0.5-0.5c-0.1-0.2-0.1-0.3,0-0.4c0.1-0.1,0.1-0.3,0.2-0.4
				l1-1.6c0.3-0.5,0.6-1.1,0.9-1.6s0.5-1.1,0.8-1.6l0.3-0.6c-0.4,0.4-0.8,0.7-1.3,1.1c-0.4,0.3-0.9,0.7-1.3,1
				c-0.5,0.4-1,0.7-1.5,1.1c-0.5,0.3-1,0.7-1.5,1.1c-0.1,0.1-0.3,0.2-0.5,0.4c-0.2,0.2-0.4,0.2-0.6,0.2c-0.2,0-0.3-0.1-0.4-0.3
				C368.1,45.9,368.2,45.8,368.4,45.7z M375.9,44.9c0.7-0.1,1.4-0.3,2.1-0.6c0.6-0.3,1.2-0.8,1.6-1.3c-0.2,0-0.4,0.1-0.6,0.1
				c-0.2,0.1-0.4,0.1-0.6,0.2c-0.2,0.1-0.5,0.2-0.8,0.3c-0.3,0.2-0.6,0.3-0.9,0.5c-0.3,0.2-0.5,0.3-0.7,0.5
				c-0.2,0.2-0.3,0.2-0.4,0.3L375.9,44.9z M378.5,37.1c0.3-0.3,0.5-0.7,0.9-1.1c0.3-0.4,0.6-0.8,0.8-1.2c-0.6,0.4-1.1,0.8-1.5,1.4
				c-0.4,0.6-0.8,1.2-1.1,1.9L378.5,37.1z"/>
			<path class="st0" d="M384.3,44.7c0.4-0.2,0.8-0.5,1.3-0.8c0.4-0.3,0.9-0.5,1.3-0.7c0.3-0.6,0.7-1,1.2-1.4
				c0.5-0.4,1.1-0.6,1.7-0.8c0.3-0.1,0.7-0.1,1.1-0.1c0.4,0,0.8,0.2,1,0.5c0.2,0.2,0.2,0.4,0.2,0.6c-0.1,0.2-0.2,0.4-0.4,0.6
				c-0.2,0.2-0.4,0.4-0.6,0.5c-0.2,0.2-0.4,0.3-0.5,0.4c-0.4,0.3-0.9,0.5-1.4,0.7c-0.5,0.2-1,0.2-1.5,0.2l-0.1,0
				c0.1,0.5,0.4,0.9,0.7,1.2s0.7,0.4,1.2,0.5c0.5,0.1,0.9,0.1,1.4,0.1c0.5-0.1,0.9-0.1,1.3-0.2c0.6-0.1,1.1-0.3,1.6-0.5
				c0.5-0.2,1-0.4,1.5-0.7c0.2-0.1,0.5-0.3,0.7-0.4c0.2-0.1,0.5-0.2,0.7-0.4c0.2-0.1,0.3,0,0.5,0c0.2,0.1,0.2,0.2,0.1,0.5
				c-0.1,0.2-0.3,0.3-0.5,0.4c-0.2,0.1-0.4,0.2-0.5,0.2l-1.7,0.9c-1.1,0.5-2.1,0.9-3.1,1.2c-0.5,0.1-0.9,0.2-1.4,0.2
				c-0.5,0-0.9-0.1-1.3-0.2c-0.4-0.2-0.8-0.4-1.1-0.7c-0.3-0.3-0.6-0.7-0.8-1.2c-0.1-0.2-0.1-0.4-0.2-0.6c0-0.2,0-0.4,0-0.5
				c-0.3,0.1-0.5,0.3-0.7,0.4c-0.2,0.2-0.4,0.3-0.6,0.4c-0.1,0.1-0.3,0.1-0.4,0.3c-0.2,0.1-0.4,0.2-0.6,0c-0.1-0.1-0.2-0.2-0.2-0.4
				C384.1,44.9,384.1,44.8,384.3,44.7z M387.8,43.6c0.6-0.1,1.1-0.2,1.6-0.5c0.5-0.3,1-0.6,1.3-1.1c-0.3-0.1-0.7-0.1-1,0
				c-0.3,0.1-0.6,0.2-0.9,0.3c-0.3,0.2-0.5,0.4-0.7,0.6C388,43.1,387.9,43.3,387.8,43.6z"/>
			<path class="st0" d="M407,43.4c1.4-0.8,2.8-1.6,4.1-2.5c1.3-0.9,2.5-1.9,3.4-2.9l1.1-2.3c0.4-0.7,0.8-1.4,1.2-2.2
				c0.4-0.7,1-1.3,1.6-1.8c0.2-0.1,0.4-0.2,0.7-0.3c0.3-0.1,0.6-0.2,0.8-0.2s0.5,0,0.6,0.2c0.2,0.1,0.2,0.4,0.1,0.9
				c-0.1,0.3-0.2,0.7-0.5,1c-0.2,0.3-0.4,0.6-0.7,0.9c-0.3,0.3-0.5,0.6-0.8,0.8c-0.3,0.3-0.5,0.5-0.7,0.8c-0.5,0.5-0.9,1-1.4,1.5
				c-0.5,0.5-1,1-1.5,1.4c-0.1,0.3-0.2,0.5-0.4,0.8c-0.1,0.3-0.2,0.5-0.3,0.8c-0.2,0.4-0.4,0.8-0.6,1.2c-0.2,0.4-0.4,0.8-0.6,1.2
				c0.7-0.5,1.4-0.9,2.2-1.3c0.7-0.4,1.5-0.8,2.2-1.2c0.2-0.2,0.5-0.3,0.9-0.4c0.3-0.1,0.7-0.1,1-0.1c0.4,0.1,0.6,0.3,0.7,0.6
				c0.1,0.3,0.1,0.7-0.1,1c-0.1,0.3-0.3,0.6-0.5,0.9c-0.2,0.3-0.4,0.6-0.6,0.9c-0.2,0.3-0.4,0.6-0.5,0.9c-0.1,0.3-0.2,0.6-0.2,0.9
				c0.6-0.1,1.2-0.3,1.9-0.7c0.6-0.3,1.2-0.7,1.8-1c0.2-0.1,0.4-0.2,0.6-0.4c0.2-0.2,0.4-0.3,0.6-0.4c0.1-0.1,0.2-0.1,0.3-0.1
				c0.1,0,0.2,0.1,0.3,0.2c0.1,0.1,0.1,0.2,0.1,0.3c0,0.1-0.1,0.2-0.2,0.3c-0.5,0.3-1,0.6-1.5,0.9c-0.5,0.3-1,0.6-1.5,0.9
				c-0.2,0.1-0.4,0.3-0.7,0.5c-0.3,0.2-0.5,0.3-0.8,0.4c-0.3,0.1-0.6,0.2-0.9,0.2c-0.3,0-0.6-0.1-0.8-0.4c-0.2-0.2-0.3-0.4-0.3-0.7
				s0-0.5,0.1-0.7c0.1-0.2,0.2-0.5,0.3-0.7c0.1-0.2,0.3-0.4,0.4-0.6c0.2-0.3,0.5-0.7,0.7-1.1c0.2-0.4,0.3-0.8,0.4-1.2
				c-0.2,0-0.4,0-0.6,0.1c-0.2,0.1-0.4,0.1-0.7,0.2c-0.2,0.1-0.5,0.2-0.7,0.3c-0.2,0.1-0.4,0.2-0.6,0.2c-0.5,0.3-1,0.5-1.4,0.8
				c-0.5,0.3-0.9,0.6-1.4,0.9c-0.7,0.6-1.2,1-1.5,1.3c-0.3,0.3-0.5,0.5-0.6,0.6c-0.1,0.1-0.2,0.2-0.4,0.3c-0.1,0.1-0.3,0-0.5-0.1
				c-0.2-0.2-0.3-0.3-0.3-0.5c0-0.2,0.1-0.3,0.2-0.5c0.6-0.7,1.2-1.5,1.7-2.3c0.5-0.8,1-1.7,1.4-2.5c-0.6,0.5-1.2,1-1.8,1.5
				c-0.6,0.5-1.2,0.9-1.9,1.3c-0.4,0.3-0.8,0.5-1.1,0.8c-0.4,0.2-0.8,0.5-1.1,0.7c-0.1,0.1-0.2,0.1-0.4,0.2c-0.1,0.1-0.2,0.1-0.4,0
				c-0.1-0.1-0.2-0.2-0.2-0.4C406.8,43.6,406.9,43.5,407,43.4z M417.6,34.9c0.3-0.3,0.6-0.7,0.9-1c0.3-0.4,0.5-0.8,0.7-1.2
				c-0.5,0.3-1,0.7-1.4,1.2c-0.4,0.5-0.7,1-1,1.4l-0.7,1.3c0.2-0.3,0.5-0.5,0.7-0.8C417.1,35.4,417.4,35.1,417.6,34.9z"/>
			<path class="st0" d="M426.6,40.7c0.5-0.2,0.9-0.4,1.4-0.6c0.5-0.2,1-0.3,1.4-0.5c0.3-0.2,0.6-0.3,1-0.4c0.4-0.1,0.7-0.1,1,0.1
				c0.2,0.1,0.3,0.3,0.2,0.5c0.2,0,0.3,0,0.5,0.1c0.3,0.3,0.4,0.6,0.4,1.1c-0.1,0.4-0.2,0.8-0.5,1.3c0.1,0.1,0.2,0.2,0.4,0.3
				c0.4,0.2,0.8,0.3,1.2,0.2c0.4,0,0.9-0.1,1.2-0.3c0.1,0,0.3-0.1,0.5-0.2c0.2-0.1,0.5-0.3,0.7-0.4c0.2-0.1,0.5-0.2,0.7-0.3
				c0.2,0,0.4,0,0.4,0.1c0.1,0.2,0.1,0.3,0,0.5c-0.1,0.1-0.3,0.2-0.5,0.3c-0.2,0.1-0.4,0.2-0.6,0.3c-0.2,0.1-0.3,0.1-0.4,0.2
				c-0.3,0.1-0.7,0.3-1.1,0.3c-0.4,0.1-0.8,0.1-1.1,0.2c-0.4,0-0.7,0-1.1-0.1c-0.4-0.1-0.7-0.2-0.9-0.5l-0.7,0.8
				c-0.3,0.3-0.6,0.5-0.9,0.8c-0.3,0.3-0.7,0.5-1.1,0.7c-0.4,0.2-0.8,0.3-1.2,0.4c-0.4,0.1-0.8,0-1.2-0.1c-0.5-0.2-0.8-0.4-0.9-0.8
				c-0.1-0.3-0.1-0.7,0-1.1c0.1-0.4,0.3-0.8,0.5-1.1c0.2-0.4,0.5-0.7,0.7-0.9l0.6-0.7c-0.5,0.2-1,0.5-1.5,0.7
				c-0.5,0.3-1,0.5-1.5,0.8c-0.1,0.1-0.2,0.1-0.3,0.2c-0.1,0.1-0.3,0.2-0.4,0.3c-0.1,0.1-0.3,0.1-0.4,0.2c-0.1,0-0.2,0-0.3,0
				c-0.2-0.1-0.2-0.2-0.2-0.4c0-0.2,0.1-0.3,0.2-0.4L426.6,40.7z M427.9,41.9c-0.1,0.1-0.2,0.3-0.5,0.6c-0.2,0.3-0.4,0.6-0.6,0.8
				c-0.2,0.3-0.3,0.6-0.3,0.8c0,0.2,0.1,0.4,0.5,0.4c0.6,0.1,1.2,0,1.7-0.2c0.5-0.2,1-0.5,1.4-0.9c0.2-0.2,0.3-0.4,0.5-0.6
				c0.2-0.2,0.3-0.4,0.4-0.6c-0.1-0.3-0.2-0.6-0.2-1c0-0.3,0-0.7,0.2-0.9c-0.7,0.1-1.2,0.3-1.7,0.5S428.3,41.5,427.9,41.9z"/>
			<path class="st0" d="M436.7,41.8c0.5-0.3,1-0.6,1.6-0.9c0.5-0.3,1-0.6,1.6-0.9c0.2-0.1,0.4-0.2,0.7-0.4c0.3-0.2,0.6-0.3,0.9-0.5
				c0.3-0.2,0.6-0.3,0.9-0.4c0.3-0.1,0.5-0.1,0.7,0c0.2,0.1,0.3,0.3,0.3,0.5c0,0.2-0.1,0.4-0.2,0.6c-0.1,0.2-0.3,0.4-0.4,0.6
				c-0.2,0.2-0.3,0.4-0.3,0.5c-0.1,0.2-0.2,0.4-0.3,0.6c-0.1,0.2-0.2,0.4-0.3,0.6c0.5-0.5,1-0.8,1.4-1.2c0.4-0.3,0.7-0.6,1.1-0.9
				c0.3-0.3,0.6-0.5,0.9-0.6c0.3-0.2,0.6-0.3,0.9-0.5c0.3-0.2,0.7-0.2,1-0.1c0.3,0.1,0.5,0.4,0.4,0.9c0,0.3-0.1,0.6-0.2,0.9
				c-0.1,0.3-0.2,0.6-0.4,0.9c0.5-0.3,1-0.7,1.5-1c0.5-0.3,1-0.7,1.5-1.1c0.4-0.3,0.9-0.6,1.4-1c0.5-0.3,1-0.5,1.5-0.6
				c0.3-0.1,0.6,0,0.8,0.1c0.2,0.1,0.4,0.3,0.5,0.5c0.1,0.2,0.1,0.5,0.1,0.7c0,0.3-0.1,0.5-0.2,0.8c-0.3,0.5-0.6,1-0.8,1.4
				c-0.3,0.5-0.5,0.9-0.8,1.4c0.4,0,0.8,0,1.3-0.2c0.5-0.2,0.9-0.4,1.2-0.5c0.3-0.1,0.6-0.3,0.9-0.4c0.3-0.1,0.6-0.3,0.9-0.5
				c0.1-0.1,0.2-0.1,0.3-0.2c0.1-0.1,0.3-0.2,0.4-0.3c0.1-0.1,0.3-0.2,0.4-0.2c0.1,0,0.3,0,0.4,0c0.2,0.1,0.3,0.2,0.2,0.4
				c-0.1,0.2-0.3,0.3-0.5,0.5c-0.2,0.2-0.5,0.3-0.7,0.4c-0.3,0.1-0.4,0.2-0.5,0.3c-0.3,0.2-0.6,0.4-1,0.5c-0.3,0.2-0.6,0.3-1,0.5
				c-0.4,0.2-0.9,0.4-1.4,0.7c-0.5,0.2-1,0.3-1.5,0.1c-0.3-0.1-0.4-0.2-0.5-0.4c-0.1-0.2-0.1-0.4-0.1-0.6c0-0.2,0.1-0.4,0.2-0.6
				c0.1-0.2,0.2-0.4,0.4-0.5c0.1-0.2,0.3-0.4,0.5-0.6c0.2-0.2,0.4-0.4,0.5-0.6c0.2-0.2,0.3-0.4,0.4-0.7c0.1-0.2,0.1-0.5,0-0.7
				c-0.2-0.1-0.5-0.1-0.9,0.1c-0.3,0.2-0.6,0.3-0.8,0.4c-0.7,0.3-1.3,0.7-2,1.1c-0.6,0.5-1.2,0.9-1.8,1.4c-0.1,0.1-0.2,0.2-0.5,0.4
				c-0.2,0.2-0.5,0.4-0.7,0.6c-0.2,0.2-0.5,0.3-0.7,0.4c-0.2,0.1-0.4,0-0.5-0.3c-0.1-0.1,0-0.3,0-0.4c0.1-0.2,0.1-0.3,0.3-0.5
				c0.1-0.2,0.2-0.4,0.3-0.5c0.1-0.2,0.2-0.3,0.2-0.4c0-0.1,0.1-0.3,0.2-0.5c0.1-0.2,0.1-0.4,0.2-0.6c-0.5,0.2-1,0.4-1.5,0.7
				s-0.9,0.6-1.3,1c-0.4,0.3-0.8,0.7-1.2,1.1c-0.4,0.4-0.8,0.8-1.2,1.1c-0.1,0.1-0.2,0.2-0.4,0.3c-0.2,0.1-0.3,0.1-0.5,0
				c-0.2-0.1-0.3-0.2-0.4-0.3c0-0.1,0-0.3,0-0.4c0.1-0.1,0.1-0.3,0.3-0.4c0.1-0.1,0.2-0.2,0.3-0.3c0.6-0.9,1.1-1.8,1.4-2.9
				c-0.5,0.1-1,0.3-1.5,0.6c-0.5,0.2-0.9,0.4-1.4,0.7c-0.3,0.2-0.6,0.4-1,0.5c-0.3,0.2-0.6,0.4-0.9,0.6c-0.1,0.1-0.2,0.1-0.3,0.1
				c-0.1,0-0.2-0.1-0.3-0.2c-0.1-0.1-0.1-0.2-0.1-0.3C436.5,41.9,436.6,41.8,436.7,41.8z"/>
			<path class="st0" d="M457.7,40.5c0.4-0.2,0.8-0.5,1.3-0.8c0.4-0.3,0.9-0.5,1.3-0.7c0.3-0.6,0.7-1,1.2-1.4
				c0.5-0.4,1.1-0.6,1.7-0.8c0.3-0.1,0.7-0.1,1.1-0.1c0.4,0,0.8,0.2,1,0.5c0.2,0.2,0.2,0.4,0.2,0.6c-0.1,0.2-0.2,0.4-0.4,0.6
				c-0.2,0.2-0.4,0.4-0.6,0.5c-0.2,0.2-0.4,0.3-0.5,0.4c-0.4,0.3-0.9,0.5-1.4,0.7c-0.5,0.2-1,0.2-1.5,0.2l-0.1,0
				c0.1,0.5,0.4,0.9,0.7,1.2c0.3,0.3,0.7,0.4,1.2,0.5c0.4,0.1,0.9,0.1,1.4,0.1c0.5-0.1,0.9-0.1,1.3-0.2c0.6-0.1,1.1-0.3,1.6-0.5
				c0.5-0.2,1-0.4,1.5-0.7c0.2-0.1,0.5-0.3,0.7-0.4c0.2-0.1,0.5-0.2,0.7-0.4c0.2-0.1,0.3,0,0.5,0c0.2,0.1,0.2,0.2,0.1,0.5
				c-0.1,0.2-0.3,0.3-0.5,0.4c-0.2,0.1-0.4,0.2-0.5,0.2l-1.7,0.9c-1,0.5-2.1,0.9-3.1,1.2c-0.5,0.1-0.9,0.2-1.4,0.2
				c-0.5,0-0.9-0.1-1.3-0.2c-0.4-0.2-0.8-0.4-1.1-0.7c-0.3-0.3-0.6-0.7-0.8-1.2c-0.1-0.2-0.1-0.4-0.2-0.6c0-0.2,0-0.4,0-0.5
				c-0.3,0.1-0.5,0.3-0.7,0.4c-0.2,0.2-0.4,0.3-0.6,0.4c-0.1,0.1-0.3,0.1-0.4,0.3c-0.2,0.1-0.4,0.2-0.6,0c-0.1-0.1-0.2-0.2-0.2-0.4
				C457.5,40.7,457.6,40.6,457.7,40.5z M461.3,39.3c0.6-0.1,1.1-0.2,1.6-0.5c0.5-0.3,1-0.6,1.3-1.1c-0.3-0.1-0.7-0.1-1,0
				c-0.3,0.1-0.6,0.2-0.9,0.3c-0.3,0.2-0.5,0.4-0.7,0.6C461.5,38.9,461.3,39.1,461.3,39.3z"/>
		</g>
	</g>
</g>
<g>
	<g>
		<path class="st7" d="M95.5,70.8c-4.4-3.3-11.8-5.7-17.3-5.7c0,0,0,0-0.1,0c-0.4,0-0.8,0-1.2,0c0,0,0,0,0,0c0,0,0,0,0,0
			c-0.2,0-0.3,0-0.5,0l0,0l0,0c-6.4,0.7-12.3,3.7-18.1,6.6c-5.4,2.7-10.4,5.3-15.8,6.1l-2.4,0.4l-3,0.4c0,0,0,0,0,0
			c-0.2-0.1-0.5-0.2-0.7-0.4c-0.1,0-0.2-0.1-0.3-0.2c-0.2-0.1-0.3-0.2-0.5-0.3c-0.2-0.1-0.3-0.2-0.5-0.2c-0.1-0.1-0.2-0.1-0.3-0.2
			c-0.3-0.1-0.5-0.3-0.8-0.4c0,0,0,0-0.1,0c-7.4-3.6-15.2-6.4-23.6-6.9c0,0,0,0,0,0c-0.1,0-0.2,0-0.2,0c0.2,0.6,0.4,1.2,0.6,1.8
			c8,0.7,16.5,3.9,23.6,7.4c0.6,0.3,1.2,0.7,1.9,1.1c-3.2,0.4-6.4,1.2-9.5,2.1c-1.3,0.4-2.6,0.8-3.9,1.2c-0.2,0.1-0.4,0.1-0.6,0.2
			c-0.5,0.2-3.6,1.3-3.6,1.3c1.5,1.8,3.2,3.5,5,5c1.7,1,3.5,1.9,5.3,2.7c1.1,0.4,2.2,0.8,3.3,1.2c1.5,0.5,3,0.9,4.4,1.1
			c2.2,0.3,4.4,0.4,6.6,0.3c1.5-0.1,2.9-0.2,4.4-0.5c4.9-0.9,9.5-2.7,14-4.7c1.2-0.5,2.3-1.1,3.5-1.6c0,0,0.1,0,0.1-0.1
			c8-3.8,15.9-8,24.8-9c0.1,0,0.2,0,0.4,0c0.2,0,0.5,0,0.8,0c0.4-0.6,0.8-1.2,1.1-1.9c-0.1,0-0.1-0.1-0.2-0.1c0,0,0,0-0.1,0
			c-0.1,0-0.1,0-0.2,0c-0.2,0-0.5,0-0.7,0c-0.2,0-0.4,0-0.6,0.1c-0.4,0.1-0.9,0.1-1.6,0.2c-1.1,0.1-2.2,0.3-3.2,0.6
			c-0.9,0.2-1.8,0.4-2.6,0.7c-0.1,0-0.1,0-0.2,0c-0.8,0.2-1.7,0.5-2.5,0.8c-0.1,0-0.1,0-0.2,0.1c-1.7,0.6-3.3,1.2-5,1.9
			c-0.1,0-0.2,0.1-0.2,0.1c-0.8,0.3-1.6,0.7-2.4,1.1c0,0,0,0,0,0c-0.8,0.4-1.6,0.7-2.4,1.1c-0.1,0-0.1,0-0.2,0.1
			c-0.8,0.4-1.7,0.8-2.5,1.2c-0.8,0.4-1.7,0.8-2.5,1.2c-2.2-2.4-4.9-3.9-8.1-4.9c-5.3-1.4-11.2-1.7-16.8-1.5c0,0-0.1,0-0.1,0
			c-0.2-0.1-0.6-0.3-0.8-0.4c0,0,0,0,0,0c-0.2-0.1,0.1,0,0.1,0c0.8,0,2.3-0.2,3.2-0.3c0.4-0.1,0.6-0.1,0.6-0.1
			c11.6-1.7,21.4-11,33-12.4c0.1,0,0.3,0,0.4-0.1c0.5,0,1.1,0,1.6,0c0.1,0,0.3,0,0.4,0c0.3,0,0.6,0,1,0c0.4,0,0.9,0,1.3,0.1
			c0.3,0,0.6,0.1,1,0.1c0.4,0.1,0.8,0.1,1.2,0.2c0.3,0.1,0.6,0.1,0.9,0.2c0.4,0.1,0.8,0.2,1.2,0.3c0.3,0.1,0.6,0.2,0.9,0.3
			c0.4,0.1,0.8,0.3,1.2,0.4c0.3,0.1,0.6,0.2,0.9,0.3c0.4,0.2,0.8,0.3,1.2,0.5c0.3,0.1,0.5,0.2,0.8,0.4c0.4,0.2,0.9,0.5,1.3,0.7
			c0.2,0.1,0.4,0.2,0.6,0.4c0.6,0.4,1.3,0.8,1.9,1.2c0.2,0.1,0.4,0.3,0.6,0.4c0,0-0.1-0.1-0.1-0.1l0.1,0.1l0.2,0.1c0,0,0,0,0,0l0,0
			c-0.3,0.9-0.7,1.7-1.1,2.6C94.4,73.7,95,72.3,95.5,70.8z M39.5,82.2c0.2,0,0.4,0,0.7,0c0,0,0,0,0,0c5.4-0.2,11.1,0.1,16.3,1.4
			c2.6,0.8,4.9,2.1,6.8,4c-0.1,0-0.1,0.1-0.2,0.1c0,0,0,0,0,0c0,0,0,0,0,0c-2.9,1.4-5.9,2.6-8.9,3.7c-0.4,0.1-0.7,0.3-1.1,0.4
			c0,0-0.1,0-0.1,0c-5.1,1.6-10.3,2.4-15.7,1.6c-5.3-0.8-11.1-3.8-15.5-7.1c0.6-0.2,1.2-0.4,1.8-0.6c1.3-0.4,2.7-0.8,4-1.2
			c-1.3,0.4-2.7,0.8-4,1.2c4.7-1.5,9.5-3,14.5-3.4C38.4,82.2,38.9,82.2,39.5,82.2z"/>
	</g>
	<g>
		<path class="st8" d="M22.9,83.8c1.3-0.4,2.6-0.8,3.9-1.2c3.1-0.9,6.3-1.7,9.5-2.1c-0.6-0.4-1.3-0.8-1.9-1.1
			c-7.1-3.6-15.7-6.7-23.6-7.4c1.9,4.9,4.6,9.4,7.9,13.4c0,0,3.1-1.1,3.6-1.3C22.4,83.9,22.7,83.8,22.9,83.8z"/>
	</g>
	<path class="st9" d="M91.3,79.5c-0.3,0-0.6,0-0.8,0c-0.1,0-0.2,0-0.4,0c-8.9,1-16.8,5.2-24.8,9c0,0-0.1,0-0.1,0.1
		c-1.2,0.5-2.3,1.1-3.5,1.6c-4.5,2-9.1,3.8-14,4.7c-1.5,0.3-2.9,0.4-4.4,0.5c-2.2,0.1-4.4,0.1-6.6-0.3c-1.5-0.2-2.9-0.6-4.4-1.1
		c-1.1-0.3-2.2-0.7-3.3-1.2c-1.8-0.7-3.6-1.6-5.3-2.7c0.2,0.2,0.4,0.3,0.6,0.5c0.4,0.3,0.8,0.6,1.1,0.9c0.4,0.3,0.8,0.6,1.1,0.9
		c0.5,0.3,1,0.7,1.5,1c1.4,1,2.9,1.8,4.5,2.6c0.5,0.2,1,0.5,1.5,0.7c0.3,0.1,0.6,0.3,0.9,0.4c0.5,0.2,0.9,0.4,1.4,0.6
		c0.3,0.1,0.6,0.2,0.9,0.3c0.6,0.2,1.2,0.4,1.8,0.6c0.3,0.1,0.6,0.2,0.8,0.3c0.6,0.2,1.1,0.3,1.7,0.5c0.2,0.1,0.4,0.1,0.7,0.2
		c0.7,0.2,1.4,0.3,2.1,0.4c0.3,0.1,0.5,0.1,0.8,0.1c0.7,0.1,1.3,0.2,2,0.3c0.1,0,0.3,0,0.4,0.1c0.8,0.1,1.5,0.2,2.3,0.2
		c0.2,0,0.5,0,0.7,0c0.8,0,1.6,0.1,2.4,0.1c0,0,0.1,0,0.1,0c0.4,0,0.8,0,1.2,0c0.5,0,0.9,0,1.4-0.1c0.2,0,0.3,0,0.5,0
		c0.5,0,1-0.1,1.4-0.1c0.1,0,0.3,0,0.4,0c0.5-0.1,1-0.1,1.6-0.2c0.1,0,0.2,0,0.3,0c0.6-0.1,1.1-0.2,1.7-0.3c0,0,0.1,0,0.1,0
		c2.5-0.5,4.9-1.2,7.2-2C78.2,94.7,86.1,88,91.3,79.5z"/>
	<path class="st10" d="M95.5,70.8c0.3-0.9,0.7-2.1,0.9-2.9c0.8-2.8,1.3-5.8,1.5-8.9C98,58,98,57,98,56c0-1.8-0.1-3.5-0.3-5.2
		c-0.2-1.7-0.5-3.4-0.9-5c-0.2-0.8-0.4-1.6-0.6-2.4c-0.7-2.4-1.6-4.7-2.7-6.9c-0.3-0.7-0.6-1.3-1-1.9c-0.7-1.3-1.4-2.5-2.3-3.7
		c-0.8-1.2-1.7-2.4-2.6-3.5c-0.9-1.1-1.9-2.2-2.9-3.2c-1-1-2.1-2-3.2-2.9c-1.1-0.9-2.3-1.8-3.5-2.6c-1.2-0.8-2.4-1.6-3.7-2.3
		c-6.4-3.5-13.7-5.4-21.5-5.4C28,10.9,7.8,31.1,7.8,56c0,5,0.8,9.7,2.3,14.2c0,0,0,0,0,0c0,0,0,0,0,0c0.1,0,0.2,0,0.2,0c0,0,0,0,0,0
		c8.4,0.5,16.1,3.3,23.6,6.9c0,0,0,0,0.1,0c0.3,0.1,0.5,0.3,0.8,0.4c0.1,0.1,0.2,0.1,0.3,0.2c0.2,0.1,0.3,0.2,0.5,0.2
		c0.2,0.1,0.3,0.2,0.5,0.3c0.1,0.1,0.2,0.1,0.3,0.2c0.2,0.1,0.5,0.2,0.7,0.4c0,0,0,0,0,0l3-0.4c-0.3-0.2-0.7-0.4-0.7-0.4
		C32.1,73.3,27.2,65.2,27.2,56c0-14.2,11.5-25.7,25.7-25.7c14.2,0,25.7,11.5,25.7,25.7c0,3.1-0.6,6.4-1.6,9.2c0,0,0,0,0,0
		c0,0,0,0,0,0l0,0C83.7,64.9,90.2,67.4,95.5,70.8"/>
	<g>
		<g>
			<path class="st6" d="M94.7,72.4c-0.2-0.1-0.4-0.3-0.6-0.4c-0.6-0.4-1.2-0.8-1.9-1.2c-0.2-0.1-0.4-0.2-0.6-0.4
				c-0.4-0.2-0.9-0.5-1.3-0.7c-0.3-0.1-0.5-0.2-0.8-0.4c-0.4-0.2-0.8-0.4-1.2-0.5c-0.3-0.1-0.6-0.2-0.9-0.3
				c-0.4-0.1-0.8-0.3-1.2-0.4c-0.3-0.1-0.6-0.2-0.9-0.3c-0.4-0.1-0.8-0.2-1.2-0.3c-0.3-0.1-0.6-0.1-0.9-0.2
				c-0.4-0.1-0.8-0.1-1.2-0.2c-0.3,0-0.6-0.1-1-0.1c-0.4,0-0.8-0.1-1.3-0.1c-0.3,0-0.6,0-1,0c-0.7,0-1.3,0-2,0c-0.1,0-0.3,0-0.4,0.1
				c0,0,0,0,0,0c0,0,0,0,0,0c-1.3,0.2-2.6,0.4-3.9,0.8c-0.8,0.2-1.6,0.5-2.4,0.8c0,0,0,0,0,0c-0.6,0.2-1.2,0.4-1.8,0.7
				c-0.7,0.3-1.4,0.6-2.1,0.9c-0.2,0.1-0.4,0.2-0.7,0.3c-0.6,0.3-1.2,0.5-1.7,0.8c-0.5,0.2-1,0.5-1.6,0.8c-0.2,0.1-0.4,0.2-0.6,0.3
				c-0.3,0.2-0.6,0.3-1,0.5c-0.9,0.5-1.8,0.9-2.8,1.4c-0.4,0.2-0.8,0.4-1.2,0.6c-4.3,2.1-8.6,4-13.2,4.7c0,0-0.3,0-0.6,0.1
				c-0.9,0.1-2.4,0.3-3.2,0.3l0.1,0c0.1,0,0.2,0,0.3,0c0.1,0,1.5-0.1,2.4-0.2c0.2,0,0.4,0,0.7-0.1c0,0-0.2,0-0.7,0.1
				c-0.8,0.1-1.6,0.2-2.4,0.2c0,0,0,0,0,0c0,0,0.1,0,0.1,0c-0.3,0-0.5,0-0.5,0c0,0,0,0-0.1,0c0,0,0,0,0,0c0.2,0.1,0.6,0.3,0.8,0.4
				c0,0,0.1,0,0.1,0c5.6-0.2,11.5,0.1,16.8,1.5c3.1,1,5.9,2.5,8.1,4.9c0.8-0.4,1.7-0.8,2.5-1.2c0.8-0.4,1.7-0.8,2.5-1.2
				c0.1,0,0.1,0,0.2-0.1c0.8-0.4,1.6-0.8,2.4-1.1c0,0,0,0,0,0c0.8-0.4,1.6-0.7,2.4-1.1c0.1,0,0.2-0.1,0.2-0.1c1.6-0.7,3.3-1.3,5-1.9
				c0.1,0,0.1,0,0.2-0.1c0.8-0.3,1.7-0.5,2.5-0.8c0.1,0,0.1,0,0.2,0c2.4-0.7,4.9-1.2,7.5-1.4c0,0,0,0,0,0c0.2,0,0.4,0,0.6-0.1
				c0.2,0,0.5,0,0.7,0c0,0,0,0,0,0c0,0,0.1,0,0.1,0c0,0,0,0,0.1,0c0.1,0,0.1,0,0.2,0.1c0.5-0.8,0.9-1.7,1.3-2.5
				c0.4-0.9,0.8-1.7,1.1-2.6C94.8,72.5,94.7,72.4,94.7,72.4z M49.2,77.9c-1.4,0.5-2.8,1-4.3,1.3C46.4,78.8,47.8,78.4,49.2,77.9z"/>
		</g>
	</g>
	<path class="st11" d="M56.4,83.6c-5.1-1.4-10.9-1.7-16.3-1.4c0,0-0.4,0-0.7,0c-0.5,0-1.1,0.1-1.6,0.1c-5,0.4-9.8,1.9-14.5,3.4
		c1.3-0.4,1.3-0.4,0,0c-0.6,0.2-1.2,0.4-1.8,0.6c4.4,3.4,10.3,6.3,15.5,7.1c5.4,0.8,10.6,0,15.7-1.6c0,0,0.1,0,0.1,0
		c0.4-0.1,0.7-0.2,1.1-0.4c3-1.1,6-2.3,8.9-3.7c0,0,0,0,0.1,0c0,0,0,0,0,0c0,0,0,0,0,0c0.1,0,0.1-0.1,0.2-0.1
		C61.3,85.6,59.1,84.4,56.4,83.6z"/>
</g>
</svg>
